<?xml version="1.0" standalone="no"?>
<!DOCTYPE svg PUBLIC "-//W3C//DTD SVG 1.1//EN" "http://www.w3.org/Graphics/SVG/1.1/DTD/svg11.dtd" >
<svg xmlns="http://www.w3.org/2000/svg">
<metadata></metadata>
<defs>
<font id="mobistar_regularregular" horiz-adv-x="1150" >
<font-face units-per-em="2048" ascent="1536" descent="-512" />
<missing-glyph horiz-adv-x="598" />
<glyph unicode="&#xfb01;" horiz-adv-x="1067" d="M-27 983q0 36 21 57t57 21h105v102q0 151 75 224t236 73q50 0 78 -16.5t28 -63.5q0 -42 -23.5 -59.5t-68.5 -20.5l-30 -2q-68 -4 -87.5 -38t-19.5 -111v-88h152q36 0 55.5 -20.5t19.5 -57.5q0 -38 -19 -60t-56 -22h-152v-821q0 -44 -25.5 -68t-70.5 -24q-42 0 -67 24 t-25 68v821h-105q-37 0 -57.5 23.5t-20.5 58.5zM719 1341q0 53 32 85t80 32q53 0 85 -32t32 -85q0 -52 -30.5 -82t-83.5 -30q-52 0 -83.5 30.5t-31.5 81.5zM741 80v901q0 45 24.5 68.5t65.5 23.5q46 0 71.5 -24t25.5 -68v-899q0 -43 -25.5 -68.5t-64.5 -25.5q-43 0 -70 24.5 t-27 67.5z" />
<glyph unicode="&#xfb02;" horiz-adv-x="1067" d="M-27 983q0 36 21 57t57 21h105v102q0 151 75 224t236 73q50 0 78 -16.5t28 -63.5q0 -42 -23.5 -59.5t-68.5 -20.5l-30 -2q-68 -4 -87.5 -38t-19.5 -111v-88h152q36 0 55.5 -20.5t19.5 -57.5q0 -38 -19 -60t-56 -22h-152v-821q0 -44 -25.5 -68t-70.5 -24q-42 0 -67 24 t-25 68v821h-105q-37 0 -57.5 23.5t-20.5 58.5zM737 80v1288q0 44 24.5 67t67.5 23q44 0 70.5 -23.5t26.5 -66.5v-1288q0 -40 -25 -66t-65 -26q-45 0 -72 24t-27 68z" />
<glyph horiz-adv-x="2048" />
<glyph horiz-adv-x="2048" />
<glyph unicode="&#xd;" horiz-adv-x="2048" />
<glyph unicode=" "  horiz-adv-x="598" />
<glyph unicode="&#x09;" horiz-adv-x="598" />
<glyph unicode="&#xa0;" horiz-adv-x="598" />
<glyph unicode="!" horiz-adv-x="598" d="M217 111q0 57 34 91t91 34q55 0 89 -35t34 -90t-34.5 -89t-90.5 -34q-54 0 -88.5 34.5t-34.5 88.5zM238 1020v342q0 45 27 70.5t73 25.5q47 0 74.5 -25t27.5 -71v-344q0 -92 -14 -260l-27 -340q-3 -51 -59 -51q-53 0 -57 49l-31 342q-14 159 -14 262z" />
<glyph unicode="&#x22;" horiz-adv-x="708" d="M92 1436q0 42 27 69t63 27q38 0 64 -27.5t26 -68.5q0 -8 -6 -56l-45 -422q-3 -29 -10.5 -40t-26.5 -11q-20 0 -28 10.5t-11 38.5l-51 445q-2 14 -2 35zM438 1436q0 42 27 69t63 27q38 0 64 -27.5t26 -68.5q0 -8 -6 -56l-45 -422q-3 -29 -10.5 -40t-26.5 -11 q-20 0 -27.5 10.5t-10.5 38.5l-52 445q-2 14 -2 35z" />
<glyph unicode="#" horiz-adv-x="1368" d="M74 565q0 60 53 60h301l33 225h-283q-23 0 -36 16t-13 43q0 58 51 58h297l58 415q6 40 20.5 57t44.5 17t47 -16t17 -45q0 -4 -2 -15.5t-4 -25.5t-3 -19l-51 -368h221l58 415q6 40 21 57t44 17q64 0 64 -61q0 -21 -6 -62l-54 -364h293q22 0 35.5 -16t13.5 -42 q0 -28 -14 -43.5t-39 -15.5h-303l-33 -225h287q22 0 35.5 -16t13.5 -42q0 -59 -53 -59h-299l-62 -449q-6 -43 -19.5 -58t-45.5 -15q-30 0 -47 16t-17 45l7 49l59 412h-223l-62 -449q-5 -38 -20.5 -55.5t-46.5 -17.5q-29 0 -45.5 16t-16.5 45q0 14 6 62l58 397h-291 q-22 0 -35.5 15.5t-13.5 41.5zM557 627h221l33 223h-221z" />
<glyph unicode="$" horiz-adv-x="1193" d="M84 383q0 47 30 73.5t72 26.5q74 0 97 -86q55 -202 258 -233v504q-48 16 -77.5 26.5t-75.5 31t-75 39.5t-63 50t-53.5 64.5t-33 80.5t-13.5 101q0 168 108.5 268.5t286.5 114.5v137q0 72 65 72q64 0 64 -74v-137q92 -6 165.5 -39.5t114.5 -76t68 -91.5t36 -81t9 -48 q0 -41 -27.5 -63.5t-66.5 -22.5q-60 0 -84 59q-12 31 -19.5 47t-25.5 45t-38 46.5t-54.5 35.5t-77.5 27v-446q232 -72 327 -171t95 -268q0 -75 -31.5 -153.5t-101.5 -137.5q-37 -30 -78 -51.5t-83 -33t-68.5 -16.5t-61.5 -9v-129q0 -39 -13.5 -60.5t-54.5 -21.5 q-39 0 -51 21t-12 61v129q-204 19 -324 137q-58 57 -95.5 132t-37.5 120zM350 1079q0 -36 11.5 -64.5t26 -46.5t45 -36.5t50 -27.5t60.5 -25v403q-54 -6 -94 -28t-60 -53t-29.5 -61t-9.5 -61zM672 162q23 4 41.5 8.5t56 21t62.5 39t45 63.5t20 93q0 95 -58.5 146t-166.5 85 v-456z" />
<glyph unicode="%" horiz-adv-x="1751" d="M39 969q0 229 91.5 350t275.5 121q50 0 93.5 -11t88.5 -42t77 -80t52 -131.5t20 -190.5q0 -74 -8.5 -137.5t-32 -129t-61.5 -112t-102 -75.5t-148 -29q-94 0 -163 36t-108 101.5t-57 147t-18 182.5zM186 961q0 -46 4 -86.5t17 -89t34 -83t59.5 -58t90.5 -23.5 q39 0 70.5 13.5t52 34.5t35.5 54t22.5 63t12 70t5.5 67.5t1 63.5q0 38 -2 70t-8 73.5t-19.5 73t-34 60t-53.5 44t-76 15.5q-47 0 -83 -16.5t-58.5 -47.5t-37 -65t-21 -79t-9 -79t-2.5 -75zM551 39q0 8 20 63l510 1291q9 23 20.5 32t33.5 9t42.5 -14t20.5 -36q0 -20 -10 -45 l-520 -1314q-14 -37 -52 -37q-24 0 -44.5 13.5t-20.5 37.5zM1014 451q0 229 91.5 350t274.5 121q50 0 93.5 -11t88.5 -42t77 -80t52.5 -131.5t20.5 -190.5q0 -74 -8.5 -137.5t-32 -129t-61.5 -112t-102 -75.5t-148 -29q-94 0 -163 36t-108 101.5t-57 147t-18 182.5z M1161 442q0 -46 4 -86.5t17 -89t34 -83t59.5 -58t90.5 -23.5q46 0 80.5 17t55.5 49t34.5 66t19.5 81t7.5 79t1.5 75q0 38 -2 70t-8 73.5t-19.5 73t-34 60t-53.5 44t-76 15.5q-47 0 -83 -16.5t-58.5 -47.5t-37 -65.5t-21 -79.5t-9 -79t-2.5 -75z" />
<glyph unicode="&#x26;" horiz-adv-x="1323" d="M80 399q0 64 17 119.5t41 95t68 82t80 69t95 66.5q-127 163 -127 314q0 131 92.5 211t224.5 80q135 0 227.5 -80t92.5 -213q0 -47 -16.5 -91.5t-39.5 -78t-62 -69t-70.5 -58.5t-77.5 -53q53 -79 166 -222.5t143 -183.5q25 36 44.5 81t29 76.5t24.5 88.5q16 67 78 67 q43 0 75 -26t32 -68q0 -65 -57.5 -179.5t-110.5 -176.5q65 -60 99.5 -78t86.5 -18q30 0 50 -23t20 -55q0 -88 -123 -88q-85 0 -145 33t-124 104q-79 -64 -178 -97.5t-203 -33.5q-205 0 -328.5 115.5t-123.5 289.5zM276 414q0 -114 81 -182t196 -68q138 0 252 86 q-36 49 -106 141t-124 165t-98 138q-93 -60 -147 -125.5t-54 -154.5zM442 1145q0 -92 84 -215q4 3 44 32t54 41.5t41 40t37.5 53.5t10.5 54q0 57 -39 92t-96 35q-58 0 -97 -37.5t-39 -95.5z" />
<glyph unicode="'" horiz-adv-x="362" d="M92 1436q0 42 27 69t63 27q38 0 64 -27.5t26 -68.5q0 -8 -6 -56l-45 -422q-3 -29 -10.5 -40t-26.5 -11q-20 0 -28 10.5t-11 38.5l-51 445q-2 14 -2 35z" />
<glyph unicode="(" horiz-adv-x="624" d="M109 666q0 272 112 514q72 156 183.5 299t162.5 143q24 0 45 -17.5t21 -41.5q0 -19 -35 -64q-89 -119 -129 -186q-174 -289 -174 -631q0 -201 65.5 -408.5t180.5 -377.5q15 -24 45 -62t46.5 -62.5t16.5 -39.5q0 -22 -17.5 -39t-41.5 -17q-42 0 -164 134 q-153 171 -235 392.5t-82 463.5z" />
<glyph unicode=")" horiz-adv-x="624" d="M-27 1567q0 22 17.5 38.5t42.5 16.5q43 0 162 -133q153 -170 235 -391.5t82 -464.5q0 -274 -111 -514q-72 -155 -184.5 -299t-161.5 -144q-24 0 -44.5 19t-20.5 41q0 18 35 63q86 115 129 187q174 289 174 630q0 414 -246 787q-16 24 -45.5 61t-46.5 62t-17 41z" />
<glyph unicode="*" horiz-adv-x="854" d="M78 1174q0 34 20.5 64t53.5 30q12 0 49 -13l145 -51q-4 147 -4 180q0 36 22.5 55t59.5 19q84 0 84 -76v-174l156 49q27 9 38 9q33 0 53.5 -30.5t20.5 -64.5q0 -51 -57 -67l-160 -47l113 -152q18 -25 18 -47q0 -33 -29.5 -58.5t-62.5 -25.5q-38 0 -63 35l-105 154 l-106 -150q-24 -35 -58 -35q-32 0 -63 26t-31 58q0 20 18 47l107 144l-166 53q-24 8 -38.5 26t-14.5 42z" />
<glyph unicode="+" horiz-adv-x="1482" d="M178 616q0 84 82 84h391v387q0 40 24.5 64.5t65.5 24.5t65.5 -24t24.5 -65v-387h398q34 0 55 -23.5t21 -60.5q0 -41 -21 -63.5t-61 -22.5h-392v-389q0 -41 -23.5 -63.5t-66.5 -22.5q-42 0 -66 23t-24 63v389h-397q-34 0 -55 24t-21 62z" />
<glyph unicode="," horiz-adv-x="425" d="M88 94q0 53 32 89t85 36q52 0 92.5 -37.5t40.5 -122.5t-34 -171t-77.5 -135.5t-74.5 -49.5q-20 0 -34 18t-14 39q0 19 14.5 37t32 33.5t32 52t14.5 88.5v17q-9 -2 -17 -2q-44 1 -68 32t-24 76z" />
<glyph unicode="-" horiz-adv-x="759" d="M76 616q0 38 21 59t59 21h452q34 0 55 -22.5t21 -57.5q0 -81 -80 -81h-452q-34 0 -55 22t-21 59z" />
<glyph unicode="." horiz-adv-x="425" d="M98 104q0 51 31 83t82 32q54 0 86.5 -30.5t32.5 -84.5t-32.5 -85t-86.5 -31q-51 0 -82 32.5t-31 83.5z" />
<glyph unicode="/" horiz-adv-x="724" d="M86 59q0 17 4 33l381 1309q17 57 80 57q34 0 61 -18.5t27 -50.5q0 -23 -4 -33l-381 -1309q-17 -59 -82 -59q-34 0 -60 19.5t-26 51.5z" />
<glyph unicode="0" d="M57 709q0 358 135 546.5t408 188.5q73 0 137.5 -17t132 -65.5t115.5 -125t78.5 -205t30.5 -296.5q0 -94 -9.5 -178t-31 -172.5t-61 -159t-95.5 -127t-140 -87.5t-188 -31q-113 0 -201 37.5t-146 103t-95.5 159t-53.5 199t-16 230.5zM256 694q0 -551 322 -551 q62 0 112 22.5t82.5 56.5t56.5 87t36.5 102t19.5 114t8.5 110t1.5 102q0 53 -2 98t-9.5 103t-20 104t-36 93t-55.5 78.5t-79.5 51t-106.5 19.5q-63 0 -114 -21.5t-85 -55t-59 -84.5t-38.5 -100.5t-21.5 -112.5t-10 -111t-2 -105z" />
<glyph unicode="1" d="M213 1083q0 20 9 37.5t26 20.5q53 9 83.5 15.5t67.5 18.5t59.5 27t48 38.5t45.5 56t40 77.5q14 33 28.5 47.5t45.5 14.5q38 0 61 -19.5t23 -56.5v-1278q0 -46 -27 -70t-72 -24q-44 0 -70 23.5t-26 70.5v924h-272q-70 0 -70 77z" />
<glyph unicode="2" d="M72 121q0 68 39 102l350 305q73 64 117.5 104.5t94.5 94.5t77 96.5t45 93t18 101.5q0 118 -68.5 187t-187.5 69q-85 0 -156 -41.5t-102 -116.5q-8 -20 -14.5 -63.5t-12 -74t-29.5 -55t-65 -24.5q-45 0 -71.5 26.5t-26.5 71.5q0 79 35 166q115 281 450 281q129 0 229 -45 t160 -139t60 -224q0 -97 -30.5 -180t-115.5 -185.5t-237 -230.5l-312 -262h656q44 0 68 -23t24 -65q0 -43 -23 -66.5t-67 -23.5h-807q-98 0 -98 121z" />
<glyph unicode="3" d="M25 401q0 42 31 64t75 22q17 0 31 -6t22 -12t16 -23.5t10.5 -23.5t9 -30t7.5 -27q33 -114 108.5 -166t201.5 -52q136 0 227.5 71t91.5 202q0 106 -76 175t-221 69q-28 0 -42 0.5t-35.5 5t-32 13t-19 25.5t-8.5 42q0 53 32.5 70.5t96.5 17.5q106 0 182 53.5t76 155.5 q0 106 -67 164.5t-173 58.5q-80 0 -148.5 -28t-107.5 -89q-15 -23 -29 -75t-36 -80.5t-68 -28.5q-44 0 -71 24.5t-27 67.5q0 65 51.5 151t108.5 131q62 50 147.5 75.5t173.5 25.5q98 0 177 -26.5t127.5 -67.5t81.5 -93.5t46 -101t13 -92.5q0 -107 -54.5 -189t-154.5 -118 q118 -29 187 -124.5t69 -223.5q0 -52 -14 -105.5t-52 -113t-94.5 -105t-150.5 -75t-212 -29.5q-117 0 -210 32.5t-147 80.5t-89.5 108t-48 109t-12.5 91z" />
<glyph unicode="4" d="M31 451q0 55 24 90l629 860q16 22 32 28.5t46 6.5q92 0 92 -78v-866h143q38 0 59 -22t21 -60t-22 -61t-60 -23h-141v-244q0 -43 -27 -67.5t-69 -24.5q-47 0 -73 23.5t-26 68.5v246h-532q-57 0 -76.5 31t-19.5 92zM227 492h432v602z" />
<glyph unicode="5" d="M98 346q0 41 33.5 63.5t77.5 22.5q21 0 37 -7t26.5 -22t16.5 -28t14.5 -35t13.5 -33q74 -160 263 -160q140 0 225.5 91t85.5 233q0 147 -85.5 233.5t-232.5 86.5q-61 0 -110 -15.5t-79 -37.5t-55 -44t-50.5 -37.5t-51.5 -15.5q-41 0 -66.5 21.5t-25.5 58.5q0 16 8 82 l78 536q13 84 98 84h635q45 0 67.5 -24t22.5 -66q0 -40 -24 -63t-64 -23h-567l-57 -379q114 90 289 90q207 0 335.5 -135.5t128.5 -343.5q0 -228 -139.5 -363.5t-367.5 -135.5q-293 0 -422 208q-23 35 -40.5 79.5t-17.5 78.5z" />
<glyph unicode="6" d="M90 702q0 111 17 213.5t57.5 200.5t102 169.5t157 115t215.5 43.5q259 0 379 -195q49 -79 49 -131q0 -40 -27 -62t-67 -22q-37 0 -55 17t-39 67q-22 52 -53 87t-68 50.5t-67.5 21t-67.5 5.5q-81 0 -144 -36.5t-100 -92.5t-60.5 -132t-31.5 -146.5t-8 -145.5 q51 102 149 154.5t217 52.5q210 0 335.5 -131t125.5 -342q0 -217 -134 -350t-351 -133q-115 0 -209 40t-167.5 123t-114 225t-40.5 334zM326 465q0 -138 82 -228t219 -90q129 0 206.5 89t77.5 221q0 139 -74.5 223t-211.5 84q-135 0 -217 -82t-82 -217z" />
<glyph unicode="7" d="M98 1327q0 44 24.5 70t67.5 26h785q42 0 64 -29t22 -73q0 -22 -12 -48t-20 -38t-36 -44t-30 -34q-56 -66 -97 -123q-132 -191 -219 -413.5t-125 -452.5q-16 -107 -37 -143.5t-82 -36.5q-106 0 -106 96q0 84 57 266q183 591 475 883h-639q-43 0 -67.5 25t-24.5 69z" />
<glyph unicode="8" d="M51 418q0 133 73.5 235t197.5 131q-105 48 -153 117t-48 182q0 54 14.5 104t49.5 97.5t87 82.5t132 56t180 21q89 0 169 -22.5t145 -66.5t103.5 -117.5t38.5 -166.5q0 -210 -198 -291q120 -31 189 -134.5t69 -231.5q0 -108 -42.5 -192.5t-115.5 -136.5t-164 -78.5 t-194 -26.5q-106 0 -200 26.5t-169.5 78.5t-119.5 137.5t-44 195.5zM248 416q0 -89 50 -151t123.5 -88.5t160.5 -26.5q140 0 231.5 68.5t91.5 203.5q0 70 -28 123t-76 83.5t-105.5 45t-124.5 14.5q-87 0 -158.5 -28.5t-118 -92t-46.5 -151.5zM309 1065q0 -56 23 -98 t63 -65.5t86 -34.5t99 -11q116 0 192 53.5t76 163.5q0 69 -38.5 117.5t-95 69t-124.5 20.5q-57 0 -105 -11t-88.5 -34.5t-64 -67t-23.5 -102.5z" />
<glyph unicode="9" d="M49 965q0 216 138 347.5t356 131.5q76 0 145.5 -18.5t140.5 -68t122 -127t83.5 -205t32.5 -292.5q0 -113 -16 -215.5t-55.5 -202.5t-100.5 -173t-157.5 -117.5t-219.5 -44.5q-127 0 -232 53.5t-163 159.5q-37 72 -37 106q0 39 30.5 65.5t69.5 26.5q33 0 53.5 -17.5 t43.5 -68.5q38 -85 96.5 -123.5t146.5 -38.5q70 0 126.5 24.5t94 68.5t64.5 97.5t41 118t20.5 123.5t6.5 121q-28 -68 -87.5 -116.5t-129.5 -70.5t-146 -22q-214 0 -340.5 131t-126.5 347zM244 965q0 -134 78 -220t210 -86q133 0 217.5 85t84.5 217q0 134 -84.5 224.5 t-217.5 90.5t-210.5 -88t-77.5 -223z" />
<glyph unicode=":" horiz-adv-x="512" d="M182 104q0 51 32 83t83 32q50 0 83.5 -30t33.5 -85q0 -52 -32 -84t-85 -32q-52 0 -83.5 32.5t-31.5 83.5zM182 860q0 51 31 84t84 33t85 -31t32 -86q0 -52 -32 -83.5t-83 -31.5q-53 0 -85 31.5t-32 83.5z" />
<glyph unicode=";" horiz-adv-x="512" d="M174 94q0 53 32 89t85 36q52 0 92.5 -37.5t40.5 -122.5t-34 -171t-77.5 -135.5t-74.5 -49.5q-20 0 -34 18t-14 39q0 19 14.5 37t32 33.5t32 52t14.5 88.5v17q-9 -2 -17 -2q-44 1 -68 32t-24 76zM176 860q0 51 31 84t84 33t85 -31t32 -86q0 -52 -32 -83.5t-83 -31.5 q-53 0 -85 31.5t-32 83.5z" />
<glyph unicode="&#x3c;" horiz-adv-x="1482" d="M197 616q0 76 63 107l838 422q16 8 30 8q31 0 53.5 -28.5t22.5 -65.5q0 -25 -11.5 -41t-41.5 -31l-737 -364l741 -367q49 -22 49 -70q0 -41 -23 -70.5t-57 -29.5q-10 0 -26 8l-840 420q-61 31 -61 102z" />
<glyph unicode="=" horiz-adv-x="1482" d="M188 414q0 40 21 62t61 22h949q34 0 54.5 -23.5t20.5 -60.5q0 -84 -82 -84h-948q-34 0 -55 23.5t-21 60.5zM188 797q0 40 21 62t61 22h949q34 0 54.5 -23.5t20.5 -60.5q0 -40 -21 -62t-61 -22h-948q-34 0 -55 23.5t-21 60.5z" />
<glyph unicode="&#x3e;" horiz-adv-x="1482" d="M276 180q0 24 12.5 39.5t43.5 30.5l735 364l-741 369q-50 23 -50 70q0 41 24 70.5t58 29.5q9 0 25 -8l840 -420q29 -13 46 -40.5t17 -61.5q0 -75 -65 -107l-834 -422q-20 -10 -35 -10q-30 0 -53 29.5t-23 66.5z" />
<glyph unicode="?" horiz-adv-x="980" d="M135 1135q0 16 4 38t15.5 54.5t29 64.5t49 64t70.5 56.5t97.5 40t127.5 15.5q181 0 295.5 -103t114.5 -271q0 -104 -41 -176.5t-111 -131.5l-96 -81q-87 -74 -111 -114.5t-24 -115.5q0 -22 -2.5 -37.5t-10.5 -34t-27.5 -28.5t-49.5 -10q-88 0 -88 84q0 148 22 207 t105 126l76 62q36 29 60 52t52 57t42 73t14 82q0 88 -59 142.5t-159 54.5q-175 0 -208 -160q-7 -29 -11 -42.5t-14.5 -30t-27.5 -22.5t-44 -6q-43 0 -66.5 25.5t-23.5 65.5zM344 111q0 55 34 90t91 35q53 0 88 -33t35 -90q0 -58 -34.5 -91.5t-90.5 -33.5q-54 0 -88.5 33.5 t-34.5 89.5z" />
<glyph unicode="@" horiz-adv-x="1845" d="M143 502q0 192 74.5 369t199 305.5t295.5 205t357 76.5q286 0 457.5 -165.5t171.5 -442.5q0 -180 -66.5 -344t-177 -263.5t-231.5 -99.5q-71 0 -115.5 48.5t-50.5 132.5q-59 -87 -135 -133t-160 -46q-123 0 -195.5 90.5t-72.5 245.5q0 111 36 217.5t94.5 185.5t138.5 127 t163 48q82 0 138.5 -41.5t96.5 -130.5l21 80q9 36 24 49.5t45 13.5t49 -15.5t19 -39.5q0 -19 -2 -29l-53 -239q-58 -271 -58 -347q0 -94 64 -94q71 0 141.5 92.5t114 227.5t43.5 258q0 229 -135.5 366.5t-362.5 137.5q-209 0 -389.5 -114t-286.5 -309t-106 -421 q0 -290 174.5 -467.5t460.5 -177.5q163 0 324 62.5t290 176.5q35 31 51.5 42.5t30.5 11.5q21 0 37 -18t16 -42q0 -20 -20 -43q-141 -142 -341 -222.5t-392 -80.5q-229 0 -406 94.5t-274 266.5t-97 395zM643 481q0 -95 46 -152t124 -57t148 62t111.5 166t41.5 221 q0 97 -47 155t-125 58q-79 0 -148 -62t-110 -166.5t-41 -224.5z" />
<glyph unicode="A" horiz-adv-x="1236" d="M20 76q0 8 9 35l473 1286q13 35 37 49t84 14q52 0 74 -16t34 -49l479 -1284q7 -21 7 -37q0 -36 -30 -61t-69 -25q-62 0 -84 59l-143 391h-543l-141 -391q-21 -59 -86 -59q-52 0 -76.5 29.5t-24.5 58.5zM406 604h423l-213 584z" />
<glyph unicode="B" horiz-adv-x="1323" d="M160 96v1254q0 51 22.5 73.5t73.5 22.5h477q108 0 190 -22.5t129 -57.5t76.5 -84t39.5 -94.5t10 -97.5q0 -258 -228 -320q134 -23 204.5 -120t70.5 -238q0 -208 -141 -310t-408 -102h-420q-50 0 -73 23t-23 73zM354 172h295q62 0 109.5 4.5t101.5 20t89 41.5t58 73.5 t23 112.5t-20.5 112.5t-51.5 74t-77.5 42.5t-87 20.5t-91.5 4.5h-348v-506zM354 848h342q157 0 223 56t66 157q0 44 -11.5 78.5t-29 56.5t-47.5 38t-56 24t-67 12t-67.5 5t-69.5 1h-283v-428z" />
<glyph unicode="C" horiz-adv-x="1449" d="M104 711q0 131 25.5 244.5t80 208.5t133.5 162t191 104.5t248 37.5q182 0 317.5 -60.5t221.5 -203.5q23 -36 42 -86t19 -84q0 -37 -32.5 -60.5t-71.5 -23.5q-30 0 -46.5 13.5t-31.5 42.5q-85 167 -171 227.5t-253 60.5q-100 0 -179.5 -32t-132 -87t-88 -130.5t-50.5 -159 t-15 -176.5q0 -117 27.5 -216.5t82.5 -178.5t148 -124t215 -45q307 0 422 277q27 70 90 70q39 0 72 -20.5t33 -57.5q0 -31 -23 -82.5t-49 -89.5q-96 -139 -231.5 -200.5t-315.5 -61.5q-339 0 -508.5 192.5t-169.5 538.5z" />
<glyph unicode="D" horiz-adv-x="1449" d="M160 96v1254q0 96 96 96h416q207 0 336 -57q93 -42 161 -113t105.5 -160t54.5 -183t17 -198q0 -239 -80 -403q-41 -84 -98 -145t-118.5 -97t-142.5 -56.5t-155 -27t-170 -6.5h-326q-96 0 -96 96zM354 172h254q222 0 324 61q114 68 165.5 206t51.5 294q0 210 -78 342 q-68 118 -172.5 159.5t-259.5 41.5h-285v-1104z" />
<glyph unicode="E" horiz-adv-x="1236" d="M160 96v1254q0 96 96 96h797q42 0 64 -23t22 -65q0 -92 -86 -92h-699v-441h664q39 0 60.5 -23.5t21.5 -60.5q0 -40 -21 -63t-61 -23h-664v-481h733q38 0 60 -22t22 -62q0 -41 -21 -65.5t-61 -24.5h-831q-96 0 -96 96z" />
<glyph unicode="F" horiz-adv-x="1110" d="M160 82v1268q0 96 96 96h760q40 0 63 -22.5t23 -63.5q0 -90 -86 -90h-660v-443h600q37 0 59.5 -22t22.5 -60q0 -40 -21.5 -63t-60.5 -23h-600v-577q0 -42 -29 -68t-71 -26q-96 0 -96 94z" />
<glyph unicode="G" horiz-adv-x="1536" d="M104 725q0 159 44 293.5t127.5 235t213.5 157.5t293 57q117 0 216.5 -27t186 -92t140.5 -165q51 -91 51 -150q0 -36 -33.5 -60t-70.5 -24q-54 0 -78 56q-67 152 -162 221t-244 69q-103 0 -184.5 -31t-135.5 -84t-90 -127.5t-51.5 -158.5t-15.5 -180q0 -95 18 -178.5 t56 -155.5t93 -123.5t134 -81t174 -29.5q183 0 299.5 115t133.5 318h-373q-84 0 -84 82q0 86 84 86h446q44 0 70.5 -27t26.5 -70v-588q0 -36 -22 -55.5t-62 -19.5q-79 0 -82 71l-6 134q-61 -105 -186.5 -160.5t-262.5 -55.5q-114 0 -210 27.5t-163 72.5t-119.5 108 t-84 129.5t-52 142t-28 140t-7.5 128.5z" />
<glyph unicode="H" horiz-adv-x="1449" d="M160 82v1284q0 44 25.5 68t68.5 24q96 0 96 -92v-543h748v541q0 44 26 69t68 25q45 0 71.5 -24t26.5 -68v-1284q0 -41 -25.5 -67.5t-66.5 -26.5q-48 0 -74 24.5t-26 69.5v571h-748v-571q0 -44 -26 -69t-72 -25q-43 0 -67.5 25.5t-24.5 68.5z" />
<glyph unicode="I" horiz-adv-x="512" d="M160 82v1282q0 94 100 94q42 0 67 -26t25 -68v-1282q0 -45 -27 -69.5t-73 -24.5q-43 0 -67.5 25.5t-24.5 68.5z" />
<glyph unicode="J" horiz-adv-x="980" d="M51 377q0 42 26.5 67t69.5 25q75 0 86 -94q14 -112 64.5 -166.5t146.5 -54.5q49 0 83.5 16t53 39.5t29 62t13 70.5t2.5 78v944q0 45 26 69.5t68 24.5q47 0 73.5 -23.5t26.5 -68.5v-981q0 -207 -101 -305t-272 -98q-94 0 -167 28t-115 70.5t-68.5 98t-35.5 103.5t-9 95z " />
<glyph unicode="K" horiz-adv-x="1280" d="M160 82v1284q0 45 26.5 68.5t69.5 23.5q46 0 72 -23.5t26 -68.5v-649l705 713q25 28 65 28q37 0 67 -27t30 -63q0 -32 -29 -61l-465 -461l551 -699q22 -28 22 -57q0 -42 -31.5 -72t-74.5 -30q-52 0 -82 41l-526 682l-234 -228v-401q0 -45 -24.5 -69.5t-69.5 -24.5 t-71.5 24.5t-26.5 69.5z" />
<glyph unicode="L" horiz-adv-x="1110" d="M160 96v1270q0 47 27 69.5t71 22.5q45 0 71.5 -23t26.5 -69v-1188h678q88 0 88 -88q0 -42 -22 -66t-66 -24h-778q-51 0 -73.5 23t-22.5 73z" />
<glyph unicode="M" horiz-adv-x="1705" d="M160 76v1286q0 40 20 62.5t47 29t68 6.5q106 0 129 -63l432 -1108l432 1108q16 39 46 51t79 12q63 0 99 -21t36 -77v-1284q0 -42 -25.5 -66t-68.5 -24q-45 0 -70.5 22.5t-25.5 67.5v1028l-418 -1071q-11 -28 -32 -37.5t-56 -9.5q-71 0 -88 47l-416 1067v-1024 q0 -90 -92 -90q-44 0 -70 22.5t-26 65.5z" />
<glyph unicode="N" horiz-adv-x="1449" d="M160 78v1292q0 90 121 90q63 0 94 -45l727 -1091v1046q0 42 26.5 65t69.5 23t67.5 -23t24.5 -65v-1290q0 -47 -29.5 -69.5t-78.5 -22.5q-67 0 -97 43l-733 1085v-1036q0 -44 -25 -68t-69 -24q-45 0 -71.5 22.5t-26.5 67.5z" />
<glyph unicode="O" horiz-adv-x="1579" d="M104 717q0 173 52 315t144.5 237t219 147t275.5 52q145 0 269 -49t215.5 -140.5t143.5 -231t52 -312.5q0 -218 -84 -389.5t-240 -268.5t-360 -97q-215 0 -372 97t-236 262t-79 378zM309 743q0 -93 16.5 -178t53.5 -161.5t91.5 -132.5t135 -88.5t178.5 -32.5q122 0 217 49 t152.5 133t87 187t29.5 218q0 159 -55.5 285.5t-165 202t-256.5 75.5q-151 0 -263 -80t-166.5 -204.5t-54.5 -272.5z" />
<glyph unicode="P" horiz-adv-x="1236" d="M160 80v1270q0 53 22 74.5t74 21.5h424q76 0 135 -7.5t120.5 -27t111.5 -60.5t86 -102q57 -98 57 -243q0 -142 -67.5 -246.5t-198.5 -149.5q-81 -28 -240 -28h-328v-502q0 -42 -26.5 -67t-69.5 -25q-100 0 -100 92zM358 756h299q159 0 222 35q116 65 116 227 q0 91 -45 153q-26 35 -62 57.5t-82 32t-83 12.5t-90 3h-275v-520z" />
<glyph unicode="Q" horiz-adv-x="1579" d="M106 721q0 216 80 383q36 73 90 136t127.5 115.5t172.5 82.5t212 30q311 0 498 -200t187 -547q0 -288 -152 -492l137 -139q27 -30 27 -59q0 -35 -30 -64.5t-64 -29.5t-60 26l-141 139q-161 -122 -402 -122q-312 0 -497 200t-185 541zM309 725q0 -167 54.5 -296.5 t165 -205.5t262.5 -76q62 0 116.5 14t84 29.5t67.5 40.5l-96 99q-19 19 -19 43q0 34 33.5 69t73.5 35q27 0 43 -16l88 -92q88 160 88 370q0 258 -134.5 411t-347.5 153q-100 0 -186.5 -38.5t-152 -110.5t-103 -182.5t-37.5 -246.5z" />
<glyph unicode="R" horiz-adv-x="1366" d="M160 80v1270q0 52 23 74t73 22h485q113 0 200 -21.5t154 -68.5t102.5 -128t35.5 -194q0 -133 -70.5 -228t-197.5 -118q40 -5 71.5 -18t53 -28t39 -40.5t27 -46t18 -55.5t12 -58.5t10 -64.5t10.5 -64q3 -18 14 -76t17 -96t5 -55q0 -46 -23 -72t-68 -26q-58 0 -88.5 58.5 t-50.5 189.5q-1 11 -5.5 43.5t-6.5 45t-6.5 41t-8 42.5t-9 36.5t-12 36t-14.5 28.5t-18 26q-38 42 -99 54.5t-145 12.5h-338v-522q0 -42 -25 -67t-67 -25q-45 0 -71.5 24t-26.5 68zM350 766h357q53 0 94 4.5t87 20.5t76 42.5t50 75t20 113.5q0 52 -13.5 92.5t-33.5 67 t-54.5 45.5t-65 28.5t-77.5 15t-80 6.5t-83 1h-277v-512z" />
<glyph unicode="S" horiz-adv-x="1280" d="M72 389q0 52 38.5 74t77.5 22q70 0 82 -59q10 -43 23.5 -78t42 -73.5t67.5 -64.5t101.5 -43t142.5 -17q77 0 136.5 16.5t93 41.5t55 58.5t28.5 62.5t7 58t-4 50.5t-21 51.5t-46.5 54.5t-85.5 51t-134 48.5l-197 55q-42 12 -66 19.5t-65.5 24t-66.5 33t-56 44.5 t-48.5 60.5t-29.5 78.5t-12 101q0 186 125.5 297.5t366.5 111.5q239 0 370 -110q59 -49 99.5 -123t40.5 -119q0 -44 -30 -69t-73 -25q-25 0 -40 8t-29 35q-4 8 -18 36.5t-21 41.5t-24.5 38.5t-32.5 39t-41.5 32.5t-54.5 28.5t-68 16.5t-87 7q-122 0 -202 -55.5t-80 -168.5 q0 -35 10 -61.5t25.5 -44.5t49.5 -34.5t66.5 -27.5t90.5 -28l225 -66q89 -26 155 -63t104 -76t61 -87.5t30.5 -91.5t7.5 -95q0 -94 -32.5 -168.5t-85 -122t-123.5 -78.5t-143 -44t-148 -13q-110 0 -216 28.5t-177 85.5q-59 46 -99 112.5t-52.5 111.5t-12.5 71z" />
<glyph unicode="T" horiz-adv-x="1110" d="M12 1360q0 40 21.5 63t62.5 23h916q42 0 63 -25.5t21 -62.5q0 -39 -21.5 -62.5t-62.5 -23.5h-359v-1190q0 -43 -25.5 -68.5t-68.5 -25.5q-100 0 -100 94v1190h-363q-41 0 -62.5 24t-21.5 64z" />
<glyph unicode="U" horiz-adv-x="1409" d="M160 573v793q0 92 98 92q43 0 70.5 -24t27.5 -68v-807q0 -41 2.5 -75t11.5 -76.5t24 -76t42 -66.5t63.5 -55t90.5 -36t121 -14q88 0 153.5 25t101.5 61.5t57.5 88t27.5 93.5t6 90v848q0 41 26.5 66.5t67.5 25.5t68.5 -25.5t27.5 -66.5v-831q0 -49 -1 -80.5t-11.5 -95.5 t-29 -108t-57 -99.5t-92.5 -89.5t-140.5 -58t-194.5 -24q-88 0 -161.5 13.5t-127.5 35t-97 56t-71 69t-48 81t-30.5 85t-16.5 89t-7.5 84.5t-1.5 80z" />
<glyph unicode="V" horiz-adv-x="1193" d="M0 1370q0 40 32 64t74 24q67 0 89 -63l407 -1110l406 1112q22 61 88 61q38 0 68 -24.5t30 -61.5q0 -23 -6 -41l-475 -1282q-12 -35 -40 -48t-71 -13q-45 0 -70.5 12t-39.5 49l-484 1278q-8 19 -8 43z" />
<glyph unicode="W" horiz-adv-x="1878" d="M0 1376q0 36 30 59t70 23q33 0 57 -16.5t33 -46.5l347 -1102l292 1096q20 71 111 71t111 -69l317 -1100l328 1104q18 63 84 63q38 0 68 -22t30 -60q0 -17 -4 -33l-395 -1288q-13 -41 -38 -54t-73 -13q-47 0 -74.5 13.5t-38.5 53.5l-317 1078l-291 -1074q-11 -41 -39 -56 t-76 -15q-45 0 -71 13.5t-39 51.5l-416 1286q-6 15 -6 37z" />
<glyph unicode="X" horiz-adv-x="1193" d="M20 88q0 28 19 55l434 611l-395 551q-21 30 -21 59q0 38 34 66t71 28q48 0 78 -43l350 -504l360 506q18 24 33 33.5t39 9.5q40 0 73 -28t33 -66q0 -33 -20 -59l-399 -549l446 -619q21 -27 21 -55q0 -39 -31.5 -67.5t-71.5 -28.5q-44 0 -76 43l-403 571l-393 -569 q-31 -45 -80 -45q-41 0 -71 29.5t-30 70.5z" />
<glyph unicode="Y" d="M0 1368q0 38 31.5 64t68.5 26q56 0 84 -45l396 -629l393 629q27 45 78 45q38 0 70 -27.5t32 -64.5q0 -26 -18 -53l-469 -729v-504q0 -44 -27 -68t-70 -24q-42 0 -68 25t-26 67v504l-459 729q-16 27 -16 55z" />
<glyph unicode="Z" horiz-adv-x="1236" d="M33 115q0 49 28 82l887 1075h-739q-41 0 -63.5 23.5t-22.5 64.5t22.5 63.5t63.5 22.5h928q77 0 77 -88q0 -18 -0.5 -26t-5.5 -22t-16 -28l-905 -1110h809q40 0 62 -23.5t22 -62.5q0 -41 -22.5 -63.5t-61.5 -22.5h-971q-48 0 -70 33.5t-22 81.5z" />
<glyph unicode="[" horiz-adv-x="581" d="M176 -201v1698q0 60 22 84.5t76 24.5h250q41 0 60.5 -16.5t19.5 -53.5q0 -42 -19.5 -60t-64.5 -18h-170v-1616h172q78 0 78 -75q0 -78 -82 -78h-227q-66 0 -90.5 23.5t-24.5 86.5z" />
<glyph unicode="\" horiz-adv-x="724" d="M88 1382q0 76 84 76q65 0 82 -57l381 -1309q4 -20 4 -29q0 -32 -24.5 -53.5t-61.5 -21.5q-29 0 -52 15.5t-30 41.5l-373 1284q-10 40 -10 53z" />
<glyph unicode="]" horiz-adv-x="581" d="M-25 -240q0 41 19 58.5t65 17.5h170v1618h-172q-77 0 -77 76q0 37 21 57.5t60 20.5h228q66 0 90 -24t24 -87v-1700q0 -59 -22 -83.5t-76 -24.5h-250q-80 0 -80 71z" />
<glyph unicode="^" horiz-adv-x="1482" d="M276 635q0 17 9 35l333 696q30 62 57 81t68 19q42 0 69 -20.5t56 -83.5l328 -690q8 -16 8 -35q0 -31 -28 -53.5t-66 -22.5q-50 0 -74 53l-297 639l-290 -643q-23 -53 -70 -53q-42 0 -72.5 23t-30.5 55z" />
<glyph unicode="_" horiz-adv-x="1024" d="M-78 -362q0 49 25 74.5t71 25.5h983q46 0 70.5 -26.5t24.5 -73.5q0 -48 -26 -75.5t-71 -27.5h-983q-43 0 -68.5 28t-25.5 75z" />
<glyph unicode="`" horiz-adv-x="598" d="M174 1434q0 38 33.5 62t73.5 24q56 0 77 -62l62 -184q4 -12 4 -25q0 -25 -22 -42t-50 -17q-31 0 -53 31l-109 159q-16 24 -16 54z" />
<glyph unicode="a" horiz-adv-x="1067" d="M82 305q0 60 15 106t40.5 77.5t67 55.5t85 38.5t103.5 27.5l174 37q49 10 75 16t50 14t33 13.5t16 16.5t8 20.5t1 28.5q0 91 -58.5 132.5t-154.5 41.5q-93 0 -144.5 -31t-81.5 -113q-14 -38 -31 -51.5t-57 -13.5q-43 0 -69.5 19.5t-26.5 60.5q0 38 33 102q53 94 152 136 t220 42q204 0 298 -84.5t94 -277.5v-649q0 -38 -22 -60t-62 -22q-47 0 -65.5 27t-18.5 75v41q-52 -73 -141.5 -112t-186.5 -39q-155 0 -250.5 86t-95.5 239zM276 303q0 -82 56 -126t141 -44t156 49q75 51 98 122t23 181v64q-37 -18 -140 -39l-110 -25q-56 -12 -89.5 -23 t-68 -31t-50.5 -51.5t-16 -76.5z" />
<glyph unicode="b" horiz-adv-x="1193" d="M141 78v1292q0 39 26 63.5t66 24.5q41 0 67 -23.5t26 -62.5v-444q116 153 338 153q94 0 169.5 -31t125 -82.5t83 -123.5t48 -150.5t14.5 -165.5q0 -88 -17 -167.5t-53 -150t-89 -122t-129.5 -81.5t-168.5 -30q-198 0 -321 138v-31q0 -45 -23 -70.5t-67 -25.5 q-43 0 -69 24t-26 66zM324 541q0 -60 8.5 -115.5t30 -110.5t54 -95t84 -64.5t117.5 -24.5q289 0 289 406q0 77 -13 142t-43 123t-87 91t-137 33q-79 0 -139 -32.5t-95 -88t-52 -122.5t-17 -142z" />
<glyph unicode="c" horiz-adv-x="1067" d="M90 537q0 159 55 280t170 192.5t279 71.5q123 0 213.5 -37t157.5 -126q22 -29 40.5 -67t18.5 -65q0 -42 -28.5 -67t-71.5 -25q-28 0 -48 13.5t-29 28.5t-22 44q-63 146 -239 146q-79 0 -138.5 -33t-93.5 -89t-50.5 -122t-16.5 -141q0 -64 8.5 -119.5t30.5 -108.5 t55.5 -90.5t86 -60.5t120.5 -23q199 0 270 187q18 46 37.5 63t50.5 17q39 0 68.5 -24.5t29.5 -62.5q0 -52 -45 -126t-90 -111q-124 -102 -323 -102q-98 0 -179.5 28t-139.5 78t-98 119.5t-59.5 153t-19.5 178.5z" />
<glyph unicode="d" horiz-adv-x="1193" d="M90 543q0 106 26.5 200t78 171t138 122t197.5 45q229 0 340 -157v440q0 44 24.5 69t66.5 25t67 -23.5t25 -64.5v-1294q0 -42 -24.5 -65t-67.5 -23q-45 0 -67 26t-22 68v45q-55 -72 -141 -109.5t-182 -37.5t-174 30.5t-130.5 83t-88 125t-51 153.5t-15.5 171zM285 520 q0 -385 290 -385q78 0 137.5 32.5t93 88t50 120.5t16.5 138q0 65 -8 121t-29.5 110t-54.5 92t-87.5 61.5t-125.5 23.5q-66 0 -117 -24t-81.5 -62.5t-50 -92.5t-26.5 -107.5t-7 -115.5z" />
<glyph unicode="e" d="M90 512q0 94 20 178t61 155.5t100 124t141 82t180 29.5q107 0 191 -33.5t135.5 -86t85 -122t46.5 -135.5t13 -133q0 -44 -24.5 -68t-67.5 -24h-686q0 -150 77 -241q50 -58 105 -79.5t131 -21.5q177 0 256 142q25 45 41.5 60t46.5 15q42 0 74.5 -24t32.5 -64 q0 -44 -58 -116q-140 -170 -393 -170q-118 0 -209.5 31.5t-163.5 111.5q-44 48 -73.5 108.5t-41.5 118t-16 94.5t-4 68zM285 633h585q-8 127 -79 206t-197 79q-253 0 -309 -285z" />
<glyph unicode="f" horiz-adv-x="598" d="M-27 983q0 36 21 57t57 21h105v102q0 151 75 224t236 73q50 0 78 -16.5t28 -63.5q0 -42 -23.5 -59.5t-68.5 -20.5l-30 -2q-68 -4 -87.5 -38t-19.5 -111v-88h152q36 0 55.5 -20.5t19.5 -57.5q0 -38 -19 -60t-56 -22h-152v-821q0 -44 -25.5 -68t-70.5 -24q-42 0 -67 24 t-25 68v821h-105q-37 0 -57.5 23.5t-20.5 58.5z" />
<glyph unicode="g" d="M90 543q0 112 28 208t83 170.5t145 117t205 42.5q215 0 293 -139v33q0 98 86 98q37 0 58.5 -20t21.5 -58v-856q0 -73 -3 -118.5t-13.5 -106t-36 -107t-66.5 -81.5q-54 -48 -141.5 -71.5t-182.5 -23.5q-265 0 -374 152q-48 63 -48 125q0 38 30 62t69 24q35 0 61.5 -21 t38.5 -55q25 -68 80 -98.5t154 -30.5q51 0 91 10t67 25.5t46 43t29.5 53.5t16 66t7 72t1.5 80v41q-64 -77 -137.5 -110t-176.5 -33q-87 0 -159 27t-122 73.5t-84.5 111t-50.5 138.5t-16 156zM283 557q0 -56 8 -105.5t28 -96.5t50.5 -80.5t78.5 -53.5t109 -20q66 0 125.5 30 t97.5 84q31 43 44.5 114t13.5 138q0 70 -13 129.5t-41.5 111.5t-81.5 82t-127 30q-77 0 -135 -29.5t-91.5 -81t-49.5 -115t-16 -137.5z" />
<glyph unicode="h" d="M141 80v1286q0 45 25.5 68.5t66.5 23.5q45 0 72 -24t27 -68v-426q51 70 140 105.5t185 35.5q353 0 353 -389v-612q0 -40 -25.5 -66t-66.5 -26q-47 0 -72 24t-25 68v577q0 120 -44.5 187t-158.5 67q-100 0 -174 -55q-71 -53 -92.5 -117t-21.5 -166v-489q0 -44 -25.5 -70 t-68.5 -26t-69 23t-26 69z" />
<glyph unicode="i" horiz-adv-x="468" d="M119 1341q0 53 32 85t80 32q53 0 85 -32t32 -85q0 -52 -31 -82t-84 -30q-52 0 -83 30.5t-31 81.5zM141 80v901q0 45 24.5 68.5t65.5 23.5q46 0 71.5 -24t25.5 -68v-899q0 -43 -25.5 -68.5t-64.5 -25.5q-43 0 -70 24.5t-27 67.5z" />
<glyph unicode="j" horiz-adv-x="468" d="M-78 -301q0 46 24.5 64.5t71.5 25.5q31 5 50.5 11.5t34 21.5t21.5 30t11 49t5 64t1 88v932q0 42 24.5 65t67.5 23q95 0 95 -88v-979q0 -86 -2.5 -127t-20 -92t-53.5 -86q-83 -80 -236 -80q-42 0 -68 19t-26 59zM119 1341q0 50 31 83.5t81 33.5q51 0 84 -32t33 -85 q0 -52 -32 -82t-85 -30q-51 0 -81.5 30.5t-30.5 81.5z" />
<glyph unicode="k" horiz-adv-x="980" d="M141 76v1290q0 45 26.5 68.5t68.5 23.5q40 0 66 -24.5t26 -63.5v-774q41 48 155 166l267 282q26 29 57 29q36 0 62 -25t26 -61q0 -32 -25 -57l-282 -295l346 -496q18 -25 18 -55q0 -40 -31.5 -68t-72.5 -28q-43 0 -72 43l-321 471l-127 -131v-295q0 -39 -26.5 -63.5 t-65.5 -24.5q-44 0 -69.5 23t-25.5 65z" />
<glyph unicode="l" horiz-adv-x="468" d="M141 80v1288q0 41 24.5 65.5t65.5 24.5q44 0 70.5 -23.5t26.5 -66.5v-1288q0 -42 -24 -67t-66 -25q-45 0 -71 24t-26 68z" />
<glyph unicode="m" horiz-adv-x="1748" d="M141 80v905q0 43 27 65.5t70 22.5q90 0 90 -96v-37q108 143 299 143q213 0 295 -165q73 84 149 124.5t180 40.5q188 0 272.5 -95t84.5 -283v-625q0 -43 -26.5 -67.5t-70.5 -24.5q-39 0 -66.5 23t-27.5 69v592q0 55 -8.5 96t-29 76.5t-59.5 54.5t-95 19q-117 0 -185.5 -76 t-68.5 -197v-565q0 -42 -28 -67t-69 -25q-44 0 -69 24.5t-25 67.5v559q0 48 -2.5 82t-13.5 74t-30.5 64.5t-55.5 41.5t-86 17q-69 0 -119.5 -26t-76.5 -62t-41.5 -85.5t-19 -83t-3.5 -69.5v-512q0 -41 -26 -66.5t-66 -25.5q-44 0 -71.5 22.5t-27.5 69.5z" />
<glyph unicode="n" d="M141 76v909q0 41 26.5 64.5t63.5 23.5q95 0 95 -98v-47q108 153 327 153q357 0 357 -393v-608q0 -44 -25 -68t-72 -24q-41 0 -66.5 24.5t-25.5 65.5v551q0 43 -1.5 71t-7.5 65.5t-19.5 62t-35 47.5t-57 34t-82.5 11q-78 0 -136 -28.5t-90 -78t-47 -107t-15 -124.5v-502 q0 -45 -25.5 -68.5t-71.5 -23.5q-41 0 -66.5 24t-25.5 64z" />
<glyph unicode="o" horiz-adv-x="1193" d="M90 535q0 251 131 398.5t381 147.5q244 0 373 -146.5t129 -393.5q0 -47 -4 -91.5t-18 -102.5t-36 -107t-61.5 -98.5t-92 -84t-131 -56t-173.5 -21.5q-102 0 -183 25t-134 70t-90 99t-56 119.5t-27 123t-8 118.5zM283 530q0 -67 9 -123.5t32 -108.5t58 -88t90.5 -57.5 t127.5 -21.5q70 0 124.5 23t89 61t57 92t31.5 110.5t9 121.5q0 82 -18 150t-55 122t-99 84.5t-145 30.5q-84 0 -146.5 -32.5t-97 -89.5t-51 -125t-16.5 -149z" />
<glyph unicode="p" horiz-adv-x="1193" d="M141 -305v1286q0 44 25.5 68t66.5 24q53 0 76 -27t23 -81v-25q120 141 313 141q113 0 202.5 -45t144.5 -121t83.5 -172t28.5 -204t-24.5 -204t-74 -177.5t-136 -129.5t-199.5 -48q-107 0 -182.5 34.5t-155.5 110.5v-430q0 -45 -27 -68.5t-72 -23.5q-40 0 -66 24.5 t-26 67.5zM328 547q0 -61 8.5 -117.5t30 -112t54.5 -96t85.5 -65.5t118.5 -25q284 0 284 414q0 59 -7.5 111t-27.5 103t-51.5 87t-82 58t-115.5 22q-64 0 -115 -21t-84.5 -56.5t-56 -85t-32 -103t-9.5 -113.5z" />
<glyph unicode="q" horiz-adv-x="1193" d="M90 537q0 88 17 167t53 148.5t89 120t129 79.5t169 29q95 0 180 -35t135 -106v29q0 104 94 104q43 0 70 -25t27 -67v-1288q0 -43 -26 -66.5t-71 -23.5q-41 0 -65.5 24.5t-24.5 65.5v444q-65 -83 -146.5 -120t-189.5 -37q-118 0 -206 46.5t-137.5 127t-73 176t-23.5 207.5 zM283 551q0 -416 286 -416q82 0 142.5 35t92.5 95t47 128t15 146q0 58 -9 112t-30.5 105.5t-54.5 89.5t-84 61t-115 23q-63 0 -113.5 -22t-83 -58t-54 -85.5t-30.5 -102.5t-9 -111z" />
<glyph unicode="r" horiz-adv-x="724" d="M141 74v913q0 42 25 64t70 22q83 0 83 -98v-94q33 90 110 141t171 51q49 0 79 -22t30 -70q0 -26 -7.5 -43t-25 -26.5t-34 -13.5t-46.5 -9q-80 -13 -134.5 -47.5t-82.5 -88t-39.5 -111t-11.5 -130.5v-438q0 -86 -95 -86q-92 0 -92 86z" />
<glyph unicode="s" horiz-adv-x="980" d="M70 295q0 46 33 66t67 20q54 0 70 -45q2 -5 10 -28.5t15 -38t20 -39t31.5 -40t44 -31.5t62 -24t81.5 -8q92 0 151.5 44.5t59.5 115.5q0 31 -12 55.5t-26.5 39t-47 29t-51.5 21t-62 19.5l-119 34q-155 45 -220.5 118t-65.5 173q0 16 2 34t10.5 49.5t23 59.5t42.5 58.5 t66 52.5t97 36.5t131 14.5q98 0 174 -25t117.5 -60t68 -76.5t34.5 -69.5t8 -45q0 -41 -28 -60.5t-58 -19.5q-31 0 -46.5 16t-41.5 66q-67 131 -236 131q-88 0 -133 -39t-45 -98q0 -27 10.5 -49t23.5 -35t40.5 -26.5t46 -19.5l55.5 -18l133 -41q76 -24 131.5 -53.5 t86.5 -58.5t49 -65t23 -65.5t5 -66.5q0 -142 -103.5 -232.5t-305.5 -90.5q-199 0 -310 94q-61 52 -86.5 117.5t-25.5 103.5z" />
<glyph unicode="t" horiz-adv-x="598" d="M-31 983q0 35 20.5 56.5t57.5 21.5h111v239q0 44 25 66.5t67 22.5q94 0 94 -89v-239h127q37 0 57.5 -20t20.5 -58t-20.5 -60t-57.5 -22h-127v-582q0 -50 3 -76.5t15 -50.5t36 -34t65 -13q27 -2 40 -4t29 -9.5t22.5 -23t6.5 -40.5q0 -80 -119 -80q-155 0 -220.5 59.5 t-65.5 208.5v645h-109q-38 0 -58 22.5t-20 59.5z" />
<glyph unicode="u" d="M141 379v602q0 45 25.5 68.5t66.5 23.5q45 0 72 -24t27 -68v-518q0 -45 1 -73.5t5 -66t12 -61t22.5 -49t35 -39.5t51.5 -23.5t71 -9.5q137 0 213 89.5t76 230.5v520q0 45 25.5 68.5t66.5 23.5q45 0 72 -23.5t27 -68.5v-903q0 -43 -24.5 -66.5t-67.5 -23.5q-55 0 -73 30 t-18 86v31q-63 -87 -138.5 -121t-188.5 -34q-97 0 -168 30t-112 85.5t-60 125.5t-19 158z" />
<glyph unicode="v" horiz-adv-x="854" d="M0 987q0 40 32 63t74 23q64 0 84 -63l238 -725l238 727q12 34 32 47.5t54 13.5q41 0 71.5 -22.5t30.5 -61.5q0 -19 -6 -37l-324 -909q-18 -55 -98 -55q-78 0 -98 57l-320 901q-8 24 -8 41z" />
<glyph unicode="w" horiz-adv-x="1409" d="M0 989q0 39 32 61.5t72 22.5q71 0 89 -69l210 -728l197 732q17 65 102 65q86 0 103 -65l201 -746l211 746q19 65 90 65q39 0 70.5 -21.5t31.5 -58.5q0 -21 -6 -39l-293 -903q-20 -63 -106 -63q-90 0 -109 65l-199 686l-184 -682q-18 -69 -113 -69q-87 0 -108 65l-285 897 q-6 18 -6 39z" />
<glyph unicode="x" horiz-adv-x="894" d="M41 78q0 27 18 53l279 397l-275 396q-18 29 -18 55q0 40 29.5 67t70.5 27q50 0 78 -45l226 -352l225 354q25 43 71 43q38 0 67.5 -26.5t29.5 -63.5q0 -24 -19 -51l-272 -393l285 -400q18 -26 18 -53q0 -42 -30 -70t-72 -28q-44 0 -74 45l-236 356l-227 -358 q-27 -43 -74 -43q-39 0 -69.5 26t-30.5 64z" />
<glyph unicode="y" horiz-adv-x="894" d="M0 985q0 42 31.5 65t74.5 23q66 0 87 -61l272 -758l244 758q19 61 84 61q41 0 72.5 -24t31.5 -64q0 -15 -6 -33l-342 -975q-52 -146 -82 -197q-65 -112 -180 -138q-40 -9 -90 -9q-37 0 -60.5 3t-48.5 12.5t-37 31.5t-12 56q0 74 57 74q12 0 46.5 -5.5t50.5 -5.5 q51 0 96.5 35t66.5 96l25 72l-373 942q-8 24 -8 41z" />
<glyph unicode="z" horiz-adv-x="980" d="M47 111q0 47 27 79l596 711h-486q-78 0 -78 80q0 38 20.5 59t57.5 21h654q40 0 56.5 -24t16.5 -70q0 -45 -22 -72l-604 -731h561q38 0 59 -21t21 -61q0 -38 -21 -60t-59 -22h-711q-88 0 -88 111z" />
<glyph unicode="{" horiz-adv-x="565" d="M14 651q0 59 56 68l28 4q57 8 82 47.5t25 122.5v440q0 271 241 271h27q61 0 81.5 -14.5t20.5 -49.5q0 -59 -53 -59h-37q-60 0 -83 -38t-23 -124v-393q0 -126 -32 -182.5t-126 -94.5q89 -28 123.5 -88t34.5 -186v-393q0 -84 24.5 -123t90.5 -39h16q63 0 63 -64 q0 -29 -17.5 -44t-61.5 -15h-29q-138 0 -199 65t-61 230v379q0 114 -21.5 155.5t-87.5 53.5l-33 6q-26 5 -37.5 19.5t-11.5 45.5z" />
<glyph unicode="|" horiz-adv-x="528" d="M176 -233v1771q0 40 24 64t64 24t63 -23.5t23 -64.5v-1771q0 -40 -23.5 -63t-64.5 -23q-40 0 -63 23t-23 63z" />
<glyph unicode="}" horiz-adv-x="565" d="M-10 -242q0 60 53 60h37q60 0 83 39t23 125v393q0 126 32 182t126 94q-89 28 -123.5 88.5t-34.5 186.5v393q0 85 -24 123.5t-90 38.5h-17q-35 0 -49 16t-14 47q0 33 17.5 46.5t62.5 13.5h28q136 0 198 -64t62 -225v-385q0 -114 21.5 -155.5t87.5 -53.5l33 -6 q49 -8 49 -66q0 -30 -12.5 -45.5t-42.5 -21.5l-31 -7q-57 -11 -81 -48t-24 -119v-441q0 -270 -227 -270h-61q-46 0 -64 14t-18 47z" />
<glyph unicode="~" horiz-adv-x="1482" d="M150 569q0 26 24 56q78 96 145 137t156 41q56 0 112 -17.5t161 -68.5l92 -45q71 -34 101.5 -44t62.5 -10q95 0 188 103q29 31 57 31q31 0 58.5 -26.5t27.5 -59.5q0 -25 -24 -56q-69 -85 -151.5 -131.5t-164.5 -46.5q-46 0 -97 16t-148 66l-72 37q-125 65 -213 65 q-47 0 -78.5 -15t-69.5 -60q-50 -58 -81 -58t-58.5 27.5t-27.5 58.5z" />
<glyph unicode="&#xa1;" horiz-adv-x="598" d="M133 1335q0 55 34.5 89t90.5 34q54 0 88.5 -34.5t34.5 -88.5q0 -57 -34 -91t-91 -34q-55 0 -89 35t-34 90zM158 84v344q0 92 14 260l27 340q3 51 59 51q53 0 57 -49l31 -342q14 -159 14 -262v-342q0 -45 -27 -70.5t-73 -25.5q-47 0 -74.5 25t-27.5 71z" />
<glyph unicode="&#xa2;" horiz-adv-x="1110" d="M94 530q0 78 14 150t46 141t80.5 121.5t121.5 88.5t164 46v158q0 28 18 43.5t44 15.5q30 0 47.5 -15t17.5 -44v-156q195 -12 307 -161q52 -69 52 -132q0 -40 -28 -64t-69 -24q-54 0 -82 62q-63 134 -180 158v-777q67 11 113 50.5t65 87.5q27 64 48.5 86t60.5 22 q38 0 66 -22.5t28 -59.5q0 -27 -18 -72q-42 -113 -137 -177t-228 -76v-158q0 -30 -18 -46t-47 -16q-60 0 -60 62v158q-88 7 -159.5 40t-120.5 85t-82.5 120.5t-48.5 145t-15 159.5zM289 530q0 -339 229 -389v777q-65 -15 -111.5 -55t-71 -95.5t-35.5 -113.5t-11 -124z" />
<glyph unicode="&#xa3;" horiz-adv-x="1323" d="M90 223q0 96 66 153.5t163 57.5q77 0 162 -45q0 67 -9.5 114.5t-35.5 112.5h-229q-32 0 -53 21t-21 53q0 35 20 56.5t54 21.5h186q-47 143 -47 254q0 187 115.5 295t304.5 108q170 0 276.5 -97.5t106.5 -264.5q0 -107 -92 -107q-40 0 -60 20.5t-23 46.5t-7.5 63.5 t-14.5 58.5q-51 110 -180 110q-109 0 -171 -71.5t-62 -182.5q0 -49 16 -116t37 -117h254q34 0 54 -21.5t20 -56.5q0 -32 -21 -53t-53 -21h-209q33 -97 33 -180q0 -64 -23 -141q12 -6 48.5 -28t56 -32.5t51.5 -25t60 -21t55 -6.5q58 0 92 43.5t39 102.5q3 27 6.5 44t13 36 t27.5 28.5t45 9.5q44 0 70 -28t26 -72q0 -40 -20 -102q-34 -109 -107.5 -173.5t-183.5 -64.5q-26 0 -51 3t-53 12t-46.5 15t-49.5 21.5t-43.5 21.5t-48 25.5t-44.5 24.5q-109 -135 -256 -135q-102 0 -173 64t-71 165zM244 211q0 -30 24.5 -47t55.5 -17q70 0 116 74 q-14 19 -54.5 35t-68.5 16q-31 0 -52 -15.5t-21 -45.5z" />
<glyph unicode="&#xa4;" horiz-adv-x="1357" d="M104 209q0 39 56 92l84 82q-103 140 -103 313q0 90 24 162t79 148l-74 73q-40 40 -53 60t-13 43q0 33 27.5 59.5t61.5 26.5q22 0 41.5 -11.5t50.5 -42.5l84 -81q134 100 311 100q182 0 311 -100l74 73q38 38 57.5 50t44.5 12q34 0 60 -26t26 -60q0 -40 -55 -95l-84 -81 q55 -76 79 -149.5t24 -162.5q0 -88 -24 -161t-79 -152l74 -72q41 -40 52 -59t11 -43q0 -34 -26.5 -60t-61.5 -26q-21 0 -41 11.5t-51 41.5l-84 82l-8 -4q-95 -60 -152 -78t-149 -18q-91 0 -159 22.5t-150 79.5l-76 -74q-45 -44 -61.5 -53.5t-41.5 -9.5q-34 0 -60 26.5 t-26 61.5zM311 696q0 -160 107.5 -267t267.5 -107q151 0 254.5 106.5t103.5 263.5q0 162 -103.5 269.5t-260.5 107.5t-263 -107.5t-106 -265.5z" />
<glyph unicode="&#xa5;" d="M10 1352q0 37 31.5 64.5t69.5 27.5q56 0 84 -45l383 -615l387 615q27 45 77 45q36 0 68.5 -28t32.5 -64q0 -27 -17 -54l-299 -462h181q46 0 70 -22.5t24 -63.5q0 -38 -23 -61t-61 -23h-299l-53 -82v-33h342q45 0 69.5 -21.5t24.5 -62.5q0 -38 -23 -62t-61 -24h-352v-301 q0 -44 -28 -68t-71 -24q-41 0 -66.5 25.5t-25.5 66.5v301h-342q-36 0 -59 22.5t-23 61.5t22 62.5t60 23.5h342v33l-51 82h-291q-36 0 -59 22.5t-23 61.5t22 62.5t60 23.5h184l-292 464q-15 22 -15 52z" />
<glyph unicode="&#xa6;" horiz-adv-x="526" d="M176 -233v688q0 40 24 64t64 24t63 -23.5t23 -64.5v-688q0 -40 -23.5 -63t-64.5 -23q-40 0 -63 23t-23 63zM176 850v688q0 40 24 64t64 24t63 -23.5t23 -64.5v-688q0 -39 -23.5 -62.5t-64.5 -23.5q-40 0 -63 23t-23 63z" />
<glyph unicode="&#xa7;" horiz-adv-x="1193" d="M102 666q0 208 236 321q-94 79 -94 209q0 138 105 224.5t274 86.5q99 0 175 -31t115.5 -76.5t58.5 -87.5t19 -75q0 -40 -27.5 -65t-70.5 -25q-35 0 -55.5 16t-46.5 72q-29 60 -68 85.5t-111 25.5q-77 0 -123.5 -40t-46.5 -106q0 -59 43.5 -106t145.5 -107l280 -166 q90 -54 142.5 -131.5t52.5 -163.5q0 -104 -56.5 -188t-164.5 -141q98 -106 98 -234q0 -140 -109 -230.5t-278 -90.5q-102 0 -191.5 38.5t-142.5 103.5t-53 140q0 41 29.5 66.5t76.5 25.5q32 0 54 -19.5t45 -70.5q54 -119 180 -119q83 0 137.5 45t54.5 111q0 68 -42 113.5 t-140 101.5l-223 127q-141 81 -210 165t-69 196zM303 682q0 -28 6.5 -51.5t24 -45.5t31.5 -37t46 -36.5t49 -31.5t58 -34l232 -135q75 28 116 78t41 113q0 58 -38.5 103t-141.5 108l-252 153q-74 -9 -123 -61.5t-49 -122.5z" />
<glyph unicode="&#xa8;" horiz-adv-x="598" d="M-37 1341q0 48 31.5 82.5t79.5 34.5q53 0 86 -32t33 -85q0 -52 -31.5 -82t-85.5 -30q-51 0 -82 30.5t-31 81.5zM408 1341q0 49 30.5 83t81.5 34q53 0 85 -31.5t32 -85.5q0 -53 -32 -82.5t-85 -29.5q-51 0 -81.5 30.5t-30.5 81.5z" />
<glyph unicode="&#xa9;" horiz-adv-x="1720" d="M131 727q0 200 96.5 366.5t264 262.5t368.5 96q151 0 286 -56t232 -152.5t154 -232t57 -288.5q0 -201 -97.5 -369t-265.5 -264t-368 -96q-150 0 -284.5 57.5t-231.5 155t-154 233.5t-57 287zM203 721q0 -182 87.5 -335.5t238.5 -243t329 -89.5t329.5 89.5t240 243 t88.5 333.5q0 139 -51 263.5t-138 214t-208.5 142t-256.5 52.5q-136 0 -258 -52.5t-210 -141.5t-139.5 -213.5t-51.5 -262.5zM432 707q0 218 125.5 355.5t323.5 137.5q110 0 197 -46t134 -130q29 -53 29 -78q0 -29 -22 -47t-56 -18q-43 0 -76 63q-63 123 -208 123 q-136 0 -215.5 -95t-79.5 -257q0 -154 75.5 -244t204.5 -90q164 0 242 156q21 41 33.5 54t38.5 13q34 0 54.5 -17.5t20.5 -45.5q0 -30 -28 -82q-113 -215 -365 -215q-191 0 -309.5 128t-118.5 335z" />
<glyph unicode="&#xaa;" horiz-adv-x="681" d="M49 977q0 44 14 78.5t33.5 55t49.5 35.5t52.5 21.5t53.5 12.5l133 26q53 11 63.5 17.5t10.5 29.5q0 93 -117 93q-107 0 -123 -78q-11 -51 -67 -51q-33 0 -53.5 16.5t-20.5 48.5q0 38 26 80q71 106 240 106q53 0 94 -9.5t67.5 -23.5t45 -38t27.5 -43t14 -50.5t5.5 -48.5 t0.5 -47v-362q0 -80 -68 -80q-32 0 -49.5 16.5t-17.5 46.5q-79 -69 -187 -69q-102 0 -164.5 58.5t-62.5 158.5zM199 975q0 -46 29.5 -68t72.5 -22q81 0 119.5 52t38.5 130v37q-20 -8 -66 -17l-67 -14q-67 -14 -97 -33.5t-30 -64.5z" />
<glyph unicode="&#xab;" horiz-adv-x="894" d="M18 616q0 54 25 74l252 203q19 16 47 16q37 0 61.5 -27t24.5 -65q0 -41 -35 -65l-186 -140l186 -141q35 -28 35 -65t-25 -64t-61 -27q-25 0 -53 21l-246 205q-16 14 -20.5 27.5t-4.5 47.5zM424 616q0 20 1 30t6.5 23t17.5 21l253 203q21 18 48 18q35 0 59.5 -29.5 t24.5 -64.5q0 -37 -33 -63l-189 -142l187 -141q35 -27 35 -68q0 -34 -24.5 -61t-61.5 -27q-28 0 -52 21l-247 205q-25 20 -25 75z" />
<glyph unicode="&#xac;" horiz-adv-x="1482" d="M139 612q0 41 21 63.5t61 22.5h938q64 0 84.5 -24t20.5 -99v-432q0 -90 -90 -90q-41 0 -66 23t-25 63v389h-868q-34 0 -55 23.5t-21 60.5z" />
<glyph unicode="&#xad;" horiz-adv-x="757" d="M76 616q0 38 21 59t59 21h452q34 0 55 -22.5t21 -57.5q0 -81 -80 -81h-452q-34 0 -55 22t-21 59z" />
<glyph unicode="&#xae;" horiz-adv-x="1720" d="M131 727q0 200 96.5 366.5t264 262.5t368.5 96q151 0 286 -56t232 -152.5t154 -232t57 -288.5q0 -201 -97.5 -369t-265.5 -264t-368 -96q-150 0 -284.5 57.5t-231.5 155t-154 233.5t-57 287zM203 721q0 -182 87.5 -335.5t238.5 -243t329 -89.5t329.5 89.5t240 243 t88.5 333.5q0 139 -51 263.5t-138 214t-208.5 142t-256.5 52.5q-136 0 -258 -52.5t-210 -141.5t-139.5 -213.5t-51.5 -262.5zM571 326v743q0 66 20 89.5t75 23.5h198q93 0 153.5 -13.5t106.5 -60.5q35 -36 48.5 -84t13.5 -84q0 -164 -160 -238q44 -21 66 -56.5t36 -102.5 l35 -170q13 -65 13 -66q0 -26 -20.5 -41.5t-53.5 -15.5q-31 0 -48.5 24t-27.5 84l-27 152q-14 84 -44 111.5t-109 27.5h-131l-2 -321q0 -78 -70 -78q-34 0 -53 20.5t-19 55.5zM715 774h143q97 0 143 33.5t46 103.5q0 82 -46 115t-159 33h-127v-285z" />
<glyph unicode="&#xaf;" horiz-adv-x="598" d="M-33 1315q0 39 21.5 62.5t64.5 23.5h492q41 0 63.5 -22t22.5 -62q0 -39 -22.5 -62.5t-61.5 -23.5h-494q-42 0 -64 23t-22 61z" />
<glyph unicode="&#xb0;" horiz-adv-x="724" d="M33 1217q0 132 96 227.5t231 95.5q139 0 235.5 -94.5t96.5 -231.5q0 -134 -97 -228.5t-233 -94.5t-232.5 95.5t-96.5 230.5zM190 1221q0 -73 50.5 -123.5t121.5 -50.5t122 50.5t51 123.5q0 71 -51 122.5t-119 51.5q-72 0 -123.5 -50.5t-51.5 -123.5z" />
<glyph unicode="&#xb1;" horiz-adv-x="1482" d="M178 82q0 84 82 84h967q34 0 55 -23t21 -61q0 -40 -21 -62t-59 -22h-969q-34 0 -55 23.5t-21 60.5zM178 805q0 41 21 63.5t61 22.5h391v373q0 40 24.5 63t65.5 23q42 0 66 -22.5t24 -63.5v-373h398q34 0 55 -24t21 -62q0 -84 -82 -84h-392v-371q0 -41 -23.5 -63.5 t-66.5 -22.5q-42 0 -66 23t-24 63v371h-397q-34 0 -55 23.5t-21 60.5z" />
<glyph unicode="&#xb2;" horiz-adv-x="776" d="M47 985q0 49 29 72l229 192q46 38 65.5 55t53.5 48t49 50t33 45t24.5 50t6.5 49q0 71 -42.5 112.5t-117.5 41.5q-67 0 -116 -36.5t-58 -102.5q-3 -22 -6 -35t-11 -29.5t-23.5 -24.5t-37.5 -8q-33 0 -52.5 18.5t-19.5 51.5q0 71 28 128t75.5 91t105 52t119.5 18 q134 0 219.5 -69t85.5 -195q0 -93 -53.5 -175.5t-204.5 -203.5l-186 -150h409q70 0 70 -63q0 -66 -68 -66h-532q-74 0 -74 84z" />
<glyph unicode="&#xb3;" horiz-adv-x="776" d="M31 1157q0 32 23 48t55 16q23 0 37.5 -12t18.5 -23t11 -37q23 -77 71 -110t130 -33q87 0 145 42t58 121q0 63 -48 103.5t-141 40.5q-25 0 -37.5 1t-29 6.5t-24 19.5t-7.5 36q0 39 23.5 51.5t70.5 12.5q66 0 114 31.5t48 91.5q0 63 -42 99t-110 36q-113 0 -161 -70 q-2 -2 -19 -47q-8 -24 -14 -37t-22 -25t-40 -12q-32 0 -52.5 17.5t-20.5 48.5q0 43 35 98.5t75 85.5q87 66 215 66q82 0 144.5 -26t95 -66.5t48 -80.5t15.5 -77q0 -135 -123 -195q72 -25 113 -82.5t41 -134.5q0 -42 -17 -86t-54.5 -88.5t-110 -73t-170.5 -28.5 q-79 0 -142.5 21t-100 52t-60.5 70t-32.5 70.5t-8.5 58.5z" />
<glyph unicode="&#xb4;" horiz-adv-x="598" d="M172 1253q0 13 4 25l62 180q11 31 30.5 46.5t55.5 15.5q48 0 75 -28t27 -60q0 -27 -18 -54l-107 -157q-20 -31 -57 -31q-29 0 -50.5 18t-21.5 45z" />
<glyph unicode="&#xb5;" d="M141 -305v1282q0 45 24 70.5t68 25.5q46 0 72.5 -23t26.5 -69v-524q0 -43 1 -72.5t6 -65.5t13 -60t23 -48t36.5 -38t53 -23t72.5 -9q74 0 130 27.5t88.5 74t48 101.5t15.5 117v520q0 45 25.5 68.5t66.5 23.5q45 0 72 -23.5t27 -68.5v-903q0 -44 -25 -67t-70 -23 q-50 0 -69 28t-19 78v41q-42 -73 -125 -114t-170 -41q-130 0 -200 47v-332q0 -44 -26.5 -68t-69.5 -24q-44 0 -69.5 24.5t-25.5 67.5z" />
<glyph unicode="&#xb6;" horiz-adv-x="1333" d="M150 1034q0 191 127 301.5t346 110.5h426q37 0 50 -9.5t13 -37.5q0 -27 -13.5 -37t-49.5 -10h-17v-1618q0 -47 -12.5 -65.5t-44.5 -18.5q-34 0 -45.5 17t-11.5 67v1616h-304v-1616q0 -47 -12.5 -65.5t-44.5 -18.5t-43.5 17.5t-11.5 66.5v921q-164 17 -258 118.5 t-94 260.5z" />
<glyph unicode="&#xb7;" horiz-adv-x="425" d="M100 614q0 53 32.5 85t86.5 32q53 0 84 -31.5t31 -83.5q0 -54 -31.5 -85t-85.5 -31q-53 0 -85 31t-32 83z" />
<glyph unicode="&#xb8;" horiz-adv-x="598" d="M80 -367q0 24 13 40t36 16q18 0 41 -13q66 -34 102 -34q54 0 77.5 23.5t23.5 58.5t-28 53t-75 18q-45 0 -45 33q0 7 62 199h86l-47 -156h10q81 0 130.5 -43.5t49.5 -110.5q0 -28 -9.5 -56t-32 -57t-69 -47t-110.5 -18q-92 0 -164 37q-51 25 -51 57z" />
<glyph unicode="&#xb9;" horiz-adv-x="776" d="M139 1585q0 14 7.5 28t21.5 17q63 10 96.5 21t66.5 40.5t58 82.5q8 16 12.5 23t15 13.5t27.5 6.5q29 0 47.5 -15t18.5 -43v-798q0 -32 -21 -50t-53 -18t-51.5 17t-19.5 51v567h-172q-54 0 -54 57z" />
<glyph unicode="&#xba;" horiz-adv-x="724" d="M35 1112q0 166 86 261t244 95q154 0 239.5 -95t85.5 -251q0 -165 -84.5 -263.5t-249.5 -98.5q-159 0 -240 96t-81 256zM184 1112q0 -229 181 -229q93 0 134.5 63.5t41.5 161.5q0 233 -181 233q-65 0 -106 -34t-55.5 -82.5t-14.5 -112.5z" />
<glyph unicode="&#xbb;" horiz-adv-x="894" d="M61 410q0 37 33 63l189 141l-187 142q-35 27 -35 67q0 34 24.5 61t61.5 27q29 0 52 -20l247 -205q25 -20 25 -76q0 -20 -1 -29.5t-6.5 -22.5t-17.5 -21l-251 -203q-23 -19 -50 -19q-35 0 -59.5 29.5t-24.5 65.5zM467 410q0 41 35 65l186 139l-186 142q-35 28 -35 65 t25 63.5t61 26.5q26 0 53 -20l246 -205q15 -14 20 -28t5 -48q0 -53 -25 -73l-252 -203q-20 -17 -47 -17q-36 0 -61 27t-25 66z" />
<glyph unicode="&#xbc;" horiz-adv-x="1751" d="M145 1202q0 14 7.5 28t21.5 17q63 10 96.5 21t66.5 40.5t58 82.5q8 16 12.5 23t15.5 13.5t28 6.5q29 0 47 -15t18 -43v-798q0 -32 -21 -50t-53 -18t-51.5 17t-19.5 51v567h-172q-54 0 -54 57zM530 37q0 11 17 57l508 1295q19 47 57 47q22 0 43 -15t21 -37q0 -18 -11 -45 l-516 -1310q-16 -43 -55 -43q-23 0 -43.5 13t-20.5 38zM932 289q0 33 18 59l414 543q15 17 26.5 22t32.5 5q68 0 68 -58v-538h86q61 0 61 -60q0 -28 -16.5 -44.5t-44.5 -16.5h-86v-146q0 -31 -20 -48t-52 -17q-71 0 -71 65v148h-344q-41 0 -56.5 22.5t-15.5 63.5zM1083 322 h265v346z" />
<glyph unicode="&#xbd;" horiz-adv-x="1751" d="M98 1202q0 14 7.5 28t21.5 17q63 10 96.5 21t66.5 40.5t58 82.5q8 16 12.5 23t15 13.5t27.5 6.5q29 0 47.5 -15t18.5 -43v-798q0 -32 -21 -50t-53 -18t-51.5 17t-19.5 51v567h-172q-54 0 -54 57zM473 37q0 14 16 57l508 1295q19 47 58 47q22 0 42.5 -15t20.5 -37 q0 -20 -10 -45l-516 -1310q-16 -43 -55 -43q-23 0 -43.5 13t-20.5 38zM989 84q0 49 29 72l229 192q46 38 65.5 55t53.5 48t49 50t33 45t24.5 50t6.5 49q0 71 -42.5 112.5t-117.5 41.5q-66 0 -115.5 -37t-58.5 -103q-3 -22 -6 -35t-11 -29t-23.5 -24t-37.5 -8 q-33 0 -52.5 18.5t-19.5 51.5q0 71 28 128t75.5 91t105 52t119.5 18q134 0 219.5 -69.5t85.5 -195.5q0 -93 -53.5 -174.5t-204.5 -203.5l-186 -150h409q70 0 70 -63q0 -66 -68 -66h-532q-74 0 -74 84z" />
<glyph unicode="&#xbe;" horiz-adv-x="1751" d="M45 774q0 32 23 48t55 16q23 0 37.5 -12t18.5 -23t11 -37q23 -77 71 -110t130 -33q87 0 145 42t58 121q0 64 -48 104t-140 40q-25 0 -37.5 1t-29.5 6.5t-24.5 19.5t-7.5 36q0 39 23.5 51.5t70.5 12.5q66 0 114 31.5t48 91.5q0 63 -41.5 99t-109.5 36q-114 0 -162 -70 q-2 -2 -19 -47q-6 -18 -10 -27.5t-12.5 -22.5t-21.5 -18.5t-31 -5.5q-32 0 -53 17.5t-21 48.5q0 43 35.5 98.5t75.5 85.5q87 66 215 66q82 0 144.5 -26t95 -66.5t48 -80.5t15.5 -77q0 -135 -123 -195q72 -25 112.5 -82.5t40.5 -134.5q0 -42 -17 -86t-54.5 -88.5t-110 -73 t-170.5 -28.5q-79 0 -142.5 21t-100 52t-60.5 70t-32.5 70.5t-8.5 58.5zM606 37q0 11 17 57l507 1295q19 47 58 47q22 0 42.5 -15t20.5 -37q0 -20 -10 -45l-516 -1310q-16 -43 -55 -43q-23 0 -43.5 13t-20.5 38zM995 289q0 32 19 59l413 543q23 27 60 27q67 0 67 -58v-538 h86q62 0 62 -60q0 -28 -17 -44.5t-45 -16.5h-86v-146q0 -31 -19.5 -48t-51.5 -17q-72 0 -72 65v148h-344q-41 0 -56.5 22.5t-15.5 63.5zM1147 322h264v346z" />
<glyph unicode="&#xbf;" horiz-adv-x="980" d="M43 354q0 104 41 176.5t111 131.5l96 81q87 74 111 114.5t24 115.5q0 22 2.5 37.5t10.5 34t27.5 28.5t49.5 10q88 0 88 -84q0 -148 -22 -207t-105 -126l-76 -62q-36 -29 -60 -52t-52 -57t-42 -73t-14 -82q0 -88 59 -142.5t159 -54.5q175 0 208 160q7 29 11 42.5 t14.5 29.5t27.5 22t44 6q43 0 66.5 -25t23.5 -65q0 -16 -4 -38t-15.5 -54.5t-29 -64.5t-49 -64t-70.5 -56.5t-97.5 -40t-127.5 -15.5q-181 0 -295.5 103t-114.5 271zM389 1333q0 58 34.5 91.5t90.5 33.5q54 0 88.5 -33.5t34.5 -89.5q0 -55 -34 -90t-91 -35q-53 0 -88 33 t-35 90z" />
<glyph unicode="&#xc0;" horiz-adv-x="1236" d="M20 76q0 8 9 35l473 1286q13 35 37 49t84 14q52 0 74 -16t34 -49l479 -1284q7 -21 7 -37q0 -36 -30 -61t-69 -25q-62 0 -84 59l-143 391h-543l-141 -391q-21 -59 -86 -59q-52 0 -76.5 29.5t-24.5 58.5zM406 604h423l-213 584zM459 1761q0 34 27 59t67 25q21 0 36.5 -7.5 t21.5 -15t14 -20.5l71 -135q9 -18 9 -31q0 -22 -19.5 -40.5t-46.5 -18.5t-47 20l-109 111q-24 24 -24 53z" />
<glyph unicode="&#xc1;" horiz-adv-x="1236" d="M20 76q0 8 9 35l473 1286q13 35 37 49t84 14q52 0 74 -16t34 -49l479 -1284q7 -21 7 -37q0 -36 -30 -61t-69 -25q-62 0 -84 59l-143 391h-543l-141 -391q-21 -59 -86 -59q-52 0 -76.5 29.5t-24.5 58.5zM406 604h423l-213 584zM526 1634q0 13 9 31l73 137q24 43 70 43 q36 0 65 -26.5t29 -59.5q0 -29 -22 -51l-111 -111q-20 -20 -47 -20q-24 0 -45 16t-21 41z" />
<glyph unicode="&#xc2;" horiz-adv-x="1236" d="M20 76q0 8 9 35l473 1286q13 35 37 49t84 14q52 0 74 -16t34 -49l479 -1284q7 -21 7 -37q0 -36 -30 -61t-69 -25q-62 0 -84 59l-143 391h-543l-141 -391q-21 -59 -86 -59q-52 0 -76.5 29.5t-24.5 58.5zM369 1651q0 22 20 47l90 104q40 47 142 47q103 0 141 -49l80 -100 q18 -21 18 -47q0 -32 -25.5 -54t-58.5 -22q-27 0 -40 8t-25 27l-90 137l-107 -141q-24 -31 -59 -31q-34 0 -60 21t-26 53zM406 604h423l-213 584z" />
<glyph unicode="&#xc3;" horiz-adv-x="1236" d="M20 76q0 8 9 35l473 1286q13 35 37 49t84 14q52 0 74 -16t34 -49l479 -1284q7 -21 7 -37q0 -36 -30 -61t-69 -25q-62 0 -84 59l-143 391h-543l-141 -391q-21 -59 -86 -59q-52 0 -76.5 29.5t-24.5 58.5zM330 1661q0 174 116 174q50 0 142 -33l104 -37q49 -16 70 -16 q14 0 25 9.5t14 29.5q5 33 16.5 45t38.5 12q28 0 38.5 -12t10.5 -33q0 -211 -117 -211q-33 0 -88 17l-137 45q-57 20 -84 20q-38 0 -43 -45q-4 -33 -16 -44t-39 -11q-29 0 -40 19.5t-11 70.5zM406 604h423l-213 584z" />
<glyph unicode="&#xc4;" horiz-adv-x="1236" d="M20 76q0 8 9 35l473 1286q13 35 37 49t84 14q52 0 74 -16t34 -49l479 -1284q7 -21 7 -37q0 -36 -30 -61t-69 -25q-62 0 -84 59l-143 391h-543l-141 -391q-21 -59 -86 -59q-52 0 -76.5 29.5t-24.5 58.5zM252 1702q0 54 36 89.5t89 35.5t88 -36t35 -89q0 -56 -35.5 -89.5 t-91.5 -33.5q-52 0 -86.5 35t-34.5 88zM406 604h423l-213 584zM733 1702q0 52 33.5 87.5t85.5 35.5q57 0 93 -33.5t36 -89.5q0 -53 -34.5 -88t-86.5 -35q-55 0 -91 34t-36 89z" />
<glyph unicode="&#xc5;" horiz-adv-x="1236" d="M20 76q0 8 9 35l473 1286q13 35 37 49t84 14q52 0 74 -16t34 -49l479 -1284q7 -21 7 -37q0 -36 -30 -61t-69 -25q-62 0 -84 59l-143 391h-543l-141 -391q-21 -59 -86 -59q-52 0 -76.5 29.5t-24.5 58.5zM406 604h423l-213 584zM426 1686q0 75 50.5 131.5t137.5 56.5 q78 0 134.5 -47.5t56.5 -136.5t-56 -142t-131 -53q-80 0 -136 56t-56 135zM532 1681q0 -37 25.5 -57t56.5 -20q36 0 60 25t24 61q0 38 -24.5 58.5t-57.5 20.5q-37 0 -60.5 -25t-23.5 -63z" />
<glyph unicode="&#xc6;" horiz-adv-x="1961" d="M-2 78q0 29 12 47l735 1274q26 47 82 47h953q40 0 64 -22.5t24 -63.5q0 -92 -88 -92h-709v-447h674q41 0 61.5 -24.5t20.5 -63.5q0 -40 -21 -62t-61 -22h-674v-473h741q39 0 61.5 -25t22.5 -65t-21.5 -63t-62.5 -23h-831q-46 0 -72 24.5t-26 71.5v291h-506l-203 -352 q-26 -47 -76 -47q-40 0 -70 25t-30 65zM475 559h414v721z" />
<glyph unicode="&#xc7;" horiz-adv-x="1449" d="M104 711q0 131 25.5 244.5t80 208.5t133.5 162t191 104.5t248 37.5q182 0 317.5 -60.5t221.5 -203.5q23 -36 42 -86t19 -84q0 -37 -32.5 -60.5t-71.5 -23.5q-30 0 -46.5 13.5t-31.5 42.5q-85 167 -171 227.5t-253 60.5q-100 0 -179.5 -32t-132 -87t-88 -130.5t-50.5 -159 t-15 -176.5q0 -117 27.5 -216.5t82.5 -178.5t148 -124t215 -45q307 0 422 277q27 70 90 70q39 0 72 -20.5t33 -57.5q0 -31 -23 -82.5t-49 -89.5q-91 -130 -214.5 -192t-283.5 -68l-34 -117h10q84 0 135 -44.5t51 -113.5q0 -30 -10 -59t-33 -59.5t-70.5 -49t-113.5 -18.5 q-90 0 -170 39q-53 24 -53 59q0 25 14 41t37 16t45 -14q59 -35 102 -35q55 0 80 24.5t25 61.5t-29.5 55.5t-77.5 18.5q-47 0 -47 35q0 7 49 160q-318 12 -477.5 203t-159.5 526z" />
<glyph unicode="&#xc8;" horiz-adv-x="1236" d="M160 96v1254q0 96 96 96h797q42 0 64 -23t22 -65q0 -92 -86 -92h-699v-441h664q39 0 60.5 -23.5t21.5 -60.5q0 -40 -21 -63t-61 -23h-664v-481h733q38 0 60 -22t22 -62q0 -41 -21 -65.5t-61 -24.5h-831q-96 0 -96 96zM459 1761q0 34 27 59t67 25q21 0 36.5 -7.5t21.5 -15 t14 -20.5l71 -135q9 -18 9 -31q0 -22 -19.5 -40.5t-46.5 -18.5t-47 20l-109 111q-24 24 -24 53z" />
<glyph unicode="&#xc9;" horiz-adv-x="1236" d="M160 96v1254q0 96 96 96h797q42 0 64 -23t22 -65q0 -92 -86 -92h-699v-441h664q39 0 60.5 -23.5t21.5 -60.5q0 -40 -21 -63t-61 -23h-664v-481h733q38 0 60 -22t22 -62q0 -41 -21 -65.5t-61 -24.5h-831q-96 0 -96 96zM528 1634q0 13 9 31l73 137q24 43 70 43 q36 0 65 -26.5t29 -59.5q0 -29 -22 -51l-111 -111q-20 -20 -47 -20q-24 0 -45 16t-21 41z" />
<glyph unicode="&#xca;" horiz-adv-x="1236" d="M160 96v1254q0 96 96 96h797q42 0 64 -23t22 -65q0 -92 -86 -92h-699v-441h664q39 0 60.5 -23.5t21.5 -60.5q0 -40 -21 -63t-61 -23h-664v-481h733q38 0 60 -22t22 -62q0 -41 -21 -65.5t-61 -24.5h-831q-96 0 -96 96zM369 1651q0 22 20 47l90 104q40 47 142 47 q103 0 141 -49l80 -100q18 -21 18 -47q0 -32 -25.5 -54t-58.5 -22q-27 0 -40 8t-25 27l-90 137l-107 -141q-24 -31 -59 -31q-34 0 -60 21t-26 53z" />
<glyph unicode="&#xcb;" horiz-adv-x="1236" d="M160 96v1254q0 96 96 96h797q42 0 64 -23t22 -65q0 -92 -86 -92h-699v-441h664q39 0 60.5 -23.5t21.5 -60.5q0 -40 -21 -63t-61 -23h-664v-481h733q38 0 60 -22t22 -62q0 -41 -21 -65.5t-61 -24.5h-831q-96 0 -96 96zM260 1702q0 54 36 89.5t89 35.5t88 -36t35 -89 q0 -56 -35.5 -89.5t-91.5 -33.5q-52 0 -86.5 35t-34.5 88zM741 1702q0 52 33.5 87.5t85.5 35.5q57 0 93 -33.5t36 -89.5q0 -53 -34.5 -88t-86.5 -35q-55 0 -91 34t-36 89z" />
<glyph unicode="&#xcc;" horiz-adv-x="512" d="M96 1761q0 34 27 59t67 25q21 0 36.5 -7.5t21.5 -15t14 -20.5l72 -135q8 -16 8 -31q0 -22 -19.5 -40.5t-46.5 -18.5t-47 20l-108 111q-25 25 -25 53zM96 1761q0 34 27 59t67 25q21 0 36.5 -7.5t21.5 -15t14 -20.5l72 -135q8 -16 8 -31q0 -22 -19.5 -40.5t-46.5 -18.5 t-47 20l-108 111q-25 25 -25 53zM160 82v1282q0 14 3.5 27.5t12 30t29.5 26.5t51 10q31 0 52 -10.5t29.5 -27t11.5 -29.5t3 -27v-1282q0 -14 -3 -27t-11.5 -29.5t-29.5 -27t-52 -10.5q-41 0 -68.5 25t-27.5 69zM160 82v1282q0 94 100 94q42 0 67 -26t25 -68v-1282 q0 -45 -27 -69.5t-73 -24.5q-43 0 -67.5 25.5t-24.5 68.5z" />
<glyph unicode="&#xcd;" horiz-adv-x="512" d="M160 82v1282q0 94 100 94q42 0 67 -26t25 -68v-1282q0 -45 -27 -69.5t-73 -24.5q-43 0 -67.5 25.5t-24.5 68.5zM166 1634q0 15 8 31l74 137q24 43 69 43q36 0 65.5 -26.5t29.5 -59.5q0 -28 -23 -51l-110 -111q-20 -20 -48 -20q-24 0 -44.5 16t-20.5 41z" />
<glyph unicode="&#xce;" horiz-adv-x="512" d="M6 1651q0 21 21 47l90 104q40 47 141 47q103 0 141 -49l80 -100q19 -22 19 -47q0 -32 -25.5 -54t-58.5 -22q-27 0 -40.5 8t-25.5 27l-90 137l-106 -141q-24 -31 -60 -31q-34 0 -60 21t-26 53zM160 82v1282q0 94 100 94q42 0 67 -26t25 -68v-1282q0 -45 -27 -69.5 t-73 -24.5q-43 0 -67.5 25.5t-24.5 68.5z" />
<glyph unicode="&#xcf;" horiz-adv-x="512" d="M-102 1702q0 54 36 89.5t89 35.5t87.5 -36t34.5 -89q0 -56 -35.5 -89.5t-91.5 -33.5q-52 0 -86 35t-34 88zM160 82v1282q0 94 100 94q42 0 67 -26t25 -68v-1282q0 -45 -27 -69.5t-73 -24.5q-43 0 -67.5 25.5t-24.5 68.5zM379 1702q0 52 33.5 87.5t85.5 35.5 q57 0 93 -33.5t36 -89.5q0 -53 -34.5 -88t-86.5 -35q-55 0 -91 34t-36 89z" />
<glyph unicode="&#xd0;" horiz-adv-x="1449" d="M0 770q0 39 23 60.5t59 21.5h78v498q0 96 96 96h416q209 0 336 -57q93 -42 161 -113t105.5 -160t54.5 -182.5t17 -198.5q0 -242 -80 -403q-30 -61 -67.5 -109.5t-78 -83t-91 -59.5t-99.5 -40.5t-109.5 -24.5t-115.5 -12t-123 -3h-326q-96 0 -96 96v586h-78 q-36 0 -59 21.5t-23 66.5zM354 172h254q220 0 324 61q78 46 129 134t69.5 178t18.5 188q0 199 -72 332q-37 67 -86 111t-111.5 65t-122.5 28t-143 7h-260v-424h451q39 0 60.5 -23t21.5 -63q0 -37 -22.5 -60.5t-59.5 -23.5h-451v-510z" />
<glyph unicode="&#xd1;" horiz-adv-x="1449" d="M160 78v1292q0 90 121 90q63 0 94 -45l727 -1091v1046q0 42 26.5 65t69.5 23t67.5 -23t24.5 -65v-1290q0 -47 -29.5 -69.5t-78.5 -22.5q-67 0 -97 43l-733 1085v-1036q0 -44 -25 -68t-69 -24q-45 0 -71.5 22.5t-26.5 67.5zM436 1661q0 174 117 174q49 0 141 -33l105 -37 q49 -16 69 -16q14 0 25 9.5t14 29.5q5 32 16.5 44.5t39.5 12.5t38.5 -12t10.5 -33q0 -211 -117 -211q-33 0 -88 17l-137 45q-58 20 -84 20q-38 0 -43 -45q-4 -33 -16.5 -44t-39.5 -11q-29 0 -40 19.5t-11 70.5z" />
<glyph unicode="&#xd2;" horiz-adv-x="1579" d="M104 717q0 173 52 315t144.5 237t219 147t275.5 52q145 0 269 -49t215.5 -140.5t143.5 -231t52 -312.5q0 -218 -84 -389.5t-240 -268.5t-360 -97q-215 0 -372 97t-236 262t-79 378zM309 743q0 -93 16.5 -178t53.5 -161.5t91.5 -132.5t135 -88.5t178.5 -32.5q122 0 217 49 t152.5 133t87 187t29.5 218q0 159 -55.5 285.5t-165 202t-256.5 75.5q-151 0 -263 -80t-166.5 -204.5t-54.5 -272.5zM629 1761q0 34 27 59t67 25q21 0 36.5 -7.5t21.5 -15t14 -20.5l71 -135q8 -16 8 -31q0 -23 -19 -41t-46 -18t-47 20l-109 111q-24 24 -24 53z" />
<glyph unicode="&#xd3;" horiz-adv-x="1579" d="M104 717q0 173 52 315t144.5 237t219 147t275.5 52q145 0 269 -49t215.5 -140.5t143.5 -231t52 -312.5q0 -218 -84 -389.5t-240 -268.5t-360 -97q-215 0 -372 97t-236 262t-79 378zM309 743q0 -93 16.5 -178t53.5 -161.5t91.5 -132.5t135 -88.5t178.5 -32.5q122 0 217 49 t152.5 133t87 187t29.5 218q0 159 -55.5 285.5t-165 202t-256.5 75.5q-151 0 -263 -80t-166.5 -204.5t-54.5 -272.5zM698 1634q0 13 9 31l73 137q24 43 70 43q36 0 65 -26.5t29 -59.5q0 -29 -22 -51l-111 -111q-20 -20 -47 -20q-24 0 -45 16t-21 41z" />
<glyph unicode="&#xd4;" horiz-adv-x="1579" d="M104 717q0 173 52 315t144.5 237t219 147t275.5 52q145 0 269 -49t215.5 -140.5t143.5 -231t52 -312.5q0 -218 -84 -389.5t-240 -268.5t-360 -97q-215 0 -372 97t-236 262t-79 378zM309 743q0 -93 16.5 -178t53.5 -161.5t91.5 -132.5t135 -88.5t178.5 -32.5q122 0 217 49 t152.5 133t87 187t29.5 218q0 159 -55.5 285.5t-165 202t-256.5 75.5q-151 0 -263 -80t-166.5 -204.5t-54.5 -272.5zM539 1651q0 22 20 47l90 104q40 47 142 47q103 0 141 -49l80 -100q18 -21 18 -47q0 -32 -25.5 -54t-58.5 -22q-27 0 -40 8t-25 27l-90 137l-107 -141 q-24 -31 -59 -31q-34 0 -60 21t-26 53z" />
<glyph unicode="&#xd5;" horiz-adv-x="1579" d="M104 717q0 173 52 315t144.5 237t219 147t275.5 52q145 0 269 -49t215.5 -140.5t143.5 -231t52 -312.5q0 -218 -84 -389.5t-240 -268.5t-360 -97q-215 0 -372 97t-236 262t-79 378zM309 743q0 -93 16.5 -178t53.5 -161.5t91.5 -132.5t135 -88.5t178.5 -32.5q122 0 217 49 t152.5 133t87 187t29.5 218q0 159 -55.5 285.5t-165 202t-256.5 75.5q-151 0 -263 -80t-166.5 -204.5t-54.5 -272.5zM500 1661q0 174 116 174q50 0 142 -33l104 -37q49 -16 70 -16q14 0 25 9.5t14 29.5q5 33 16.5 45t38.5 12q28 0 38.5 -12t10.5 -33q0 -211 -117 -211 q-33 0 -88 17l-137 45q-57 20 -84 20q-38 0 -43 -45q-4 -33 -16 -44t-39 -11q-29 0 -40 19.5t-11 70.5z" />
<glyph unicode="&#xd6;" horiz-adv-x="1579" d="M104 717q0 173 52 315t144.5 237t219 147t275.5 52q145 0 269 -49t215.5 -140.5t143.5 -231t52 -312.5q0 -218 -84 -389.5t-240 -268.5t-360 -97q-215 0 -372 97t-236 262t-79 378zM309 743q0 -93 16.5 -178t53.5 -161.5t91.5 -132.5t135 -88.5t178.5 -32.5q122 0 217 49 t152.5 133t87 187t29.5 218q0 159 -55.5 285.5t-165 202t-256.5 75.5q-151 0 -263 -80t-166.5 -204.5t-54.5 -272.5zM428 1702q0 54 36 89.5t89 35.5t88 -36t35 -89q0 -56 -35.5 -89.5t-91.5 -33.5q-52 0 -86.5 35t-34.5 88zM909 1702q0 52 33.5 87.5t85.5 35.5 q57 0 93 -33.5t36 -89.5q0 -53 -34.5 -88t-86.5 -35q-55 0 -91 34t-36 89z" />
<glyph unicode="&#xd7;" horiz-adv-x="1482" d="M295 946q0 36 29 64t65 28q32 0 60 -26l276 -271l276 285q23 23 54 23q33 0 62.5 -29.5t29.5 -63.5q0 -26 -27 -53l-274 -280l278 -271q11 -11 16 -17.5t9 -17.5t4 -26q0 -33 -30 -64.5t-64 -31.5q-32 0 -60 28l-278 271l-277 -285q-23 -23 -51 -23q-33 0 -63.5 30 t-30.5 63q0 26 27 53l272 280l-276 271q-27 27 -27 63z" />
<glyph unicode="&#xd8;" horiz-adv-x="1579" d="M106 723q0 156 47.5 292t134.5 236.5t219.5 158.5t293.5 58q247 0 438 -159l100 108q21 21 41 21q25 0 46.5 -21.5t21.5 -44.5q0 -21 -16 -37l-107 -114q148 -200 148 -496q0 -160 -43 -290.5t-111.5 -214t-159.5 -140t-181.5 -80t-182.5 -23.5q-138 0 -248.5 40 t-210.5 128l-113 -120q-19 -19 -43 -19t-42.5 19t-18.5 41t16 40l119 130q-148 202 -148 487zM307 729q0 -185 82 -350l721 792q-138 129 -324 129q-92 0 -170.5 -32t-134.5 -86.5t-96 -127.5t-59 -155.5t-19 -169.5zM463 279q124 -132 323 -132q122 0 217.5 49.5t152 133.5 t85.5 187.5t29 219.5q0 202 -82 336z" />
<glyph unicode="&#xd9;" horiz-adv-x="1409" d="M160 573v793q0 92 98 92q43 0 70.5 -24t27.5 -68v-807q0 -41 2.5 -75t11.5 -76.5t24 -76t42 -66.5t63.5 -55t90.5 -36t121 -14q88 0 153.5 25t101.5 61.5t57.5 88t27.5 93.5t6 90v848q0 41 26.5 66.5t67.5 25.5t68.5 -25.5t27.5 -66.5v-831q0 -49 -1 -80.5t-11.5 -95.5 t-29 -108t-57 -99.5t-92.5 -89.5t-140.5 -58t-194.5 -24q-88 0 -161.5 13.5t-127.5 35t-97 56t-71 69t-48 81t-30.5 85t-16.5 89t-7.5 84.5t-1.5 80zM545 1761q0 34 27 59t67 25q21 0 36.5 -7.5t21.5 -15t14 -20.5l71 -135q9 -18 9 -31q0 -22 -19.5 -40.5t-46.5 -18.5 t-47 20l-109 111q-24 24 -24 53z" />
<glyph unicode="&#xda;" horiz-adv-x="1409" d="M160 573v793q0 92 98 92q43 0 70.5 -24t27.5 -68v-807q0 -41 2.5 -75t11.5 -76.5t24 -76t42 -66.5t63.5 -55t90.5 -36t121 -14q88 0 153.5 25t101.5 61.5t57.5 88t27.5 93.5t6 90v848q0 41 26.5 66.5t67.5 25.5t68.5 -25.5t27.5 -66.5v-831q0 -49 -1 -80.5t-11.5 -95.5 t-29 -108t-57 -99.5t-92.5 -89.5t-140.5 -58t-194.5 -24q-88 0 -161.5 13.5t-127.5 35t-97 56t-71 69t-48 81t-30.5 85t-16.5 89t-7.5 84.5t-1.5 80zM614 1634q0 13 9 31l73 137q24 43 70 43q36 0 65 -26.5t29 -59.5q0 -29 -22 -51l-111 -111q-20 -20 -47 -20q-24 0 -45 16 t-21 41z" />
<glyph unicode="&#xdb;" horiz-adv-x="1409" d="M160 573v793q0 92 98 92q43 0 70.5 -24t27.5 -68v-807q0 -41 2.5 -75t11.5 -76.5t24 -76t42 -66.5t63.5 -55t90.5 -36t121 -14q88 0 153.5 25t101.5 61.5t57.5 88t27.5 93.5t6 90v848q0 41 26.5 66.5t67.5 25.5t68.5 -25.5t27.5 -66.5v-831q0 -49 -1 -80.5t-11.5 -95.5 t-29 -108t-57 -99.5t-92.5 -89.5t-140.5 -58t-194.5 -24q-88 0 -161.5 13.5t-127.5 35t-97 56t-71 69t-48 81t-30.5 85t-16.5 89t-7.5 84.5t-1.5 80zM455 1651q0 22 20 47l90 104q40 47 142 47q103 0 141 -49l80 -100q18 -21 18 -47q0 -32 -25.5 -54t-58.5 -22q-27 0 -40 8 t-25 27l-90 137l-107 -141q-24 -31 -59 -31q-34 0 -60 21t-26 53z" />
<glyph unicode="&#xdc;" horiz-adv-x="1409" d="M160 573v793q0 92 98 92q43 0 70.5 -24t27.5 -68v-807q0 -41 2.5 -75t11.5 -76.5t24 -76t42 -66.5t63.5 -55t90.5 -36t121 -14q88 0 153.5 25t101.5 61.5t57.5 88t27.5 93.5t6 90v848q0 41 26.5 66.5t67.5 25.5t68.5 -25.5t27.5 -66.5v-831q0 -49 -1 -80.5t-11.5 -95.5 t-29 -108t-57 -99.5t-92.5 -89.5t-140.5 -58t-194.5 -24q-88 0 -161.5 13.5t-127.5 35t-97 56t-71 69t-48 81t-30.5 85t-16.5 89t-7.5 84.5t-1.5 80zM342 1702q0 54 36 89.5t89 35.5t88 -36t35 -89q0 -56 -35.5 -89.5t-91.5 -33.5q-52 0 -86.5 35t-34.5 88zM823 1702 q0 52 33.5 87.5t85.5 35.5q57 0 93 -33.5t36 -89.5q0 -53 -34.5 -88t-86.5 -35q-55 0 -91 34t-36 89z" />
<glyph unicode="&#xdd;" d="M0 1368q0 38 31.5 64t68.5 26q56 0 84 -45l396 -629l393 629q27 45 78 45q38 0 70 -27.5t32 -64.5q0 -26 -18 -53l-469 -729v-504q0 -44 -27 -68t-70 -24q-42 0 -68 25t-26 67v504l-459 729q-16 27 -16 55zM485 1634q0 13 9 31l73 137q24 43 70 43q36 0 65 -26.5 t29 -59.5q0 -29 -22 -51l-111 -111q-20 -20 -47 -20q-24 0 -45 16t-21 41z" />
<glyph unicode="&#xde;" horiz-adv-x="1236" d="M160 80v1272q0 52 24.5 73t71.5 21q54 0 77 -22.5t23 -73.5v-174h291q69 0 115 -2.5t105.5 -13.5t102 -31t86.5 -58t77 -92q57 -95 57 -240q0 -146 -66 -250.5t-200 -150.5q-78 -27 -240 -27h-328v-231q0 -42 -26.5 -67t-69.5 -25q-47 0 -73.5 24t-26.5 68zM356 485h301 q165 0 222 33q116 65 116 227q0 90 -41 148q-43 64 -107.5 87.5t-217.5 23.5h-273v-519z" />
<glyph unicode="&#xdf;" horiz-adv-x="1067" d="M141 74v938q0 82 10.5 146.5t37.5 124t71 99t115 63t166 23.5q80 0 144.5 -20.5t105.5 -54t69 -78t39.5 -90t11.5 -92.5q0 -65 -18 -126.5t-60.5 -113t-101.5 -70.5q62 -10 110.5 -48.5t77.5 -92t43.5 -113.5t14.5 -120q0 -31 -3 -63t-13.5 -79.5t-28 -88.5t-51 -85 t-77.5 -74.5t-112 -50.5t-151 -20q-34 0 -54.5 2.5t-42 10t-31.5 25t-10 44.5q0 33 17.5 57.5t58.5 24.5h43q136 0 200 76.5t64 213.5q0 135 -69 212t-207 81q-51 2 -80 19.5t-29 64.5q0 45 24.5 60t92.5 20q104 7 157.5 66t53.5 157q0 93 -49.5 143t-144.5 50 q-56 0 -95.5 -18.5t-61 -45t-33 -70t-14.5 -78.5t-3 -85v-944q0 -43 -26 -64.5t-69 -21.5q-42 0 -67 22.5t-25 63.5z" />
<glyph unicode="&#xe0;" horiz-adv-x="1067" d="M82 305q0 60 15 106t40.5 77.5t67 55.5t85 38.5t103.5 27.5l174 37q49 10 75 16t50 14t33 13.5t16 16.5t8 20.5t1 28.5q0 91 -58.5 132.5t-154.5 41.5q-93 0 -144.5 -31t-81.5 -113q-14 -38 -31 -51.5t-57 -13.5q-43 0 -69.5 19.5t-26.5 60.5q0 38 33 102q53 94 152 136 t220 42q204 0 298 -84.5t94 -277.5v-649q0 -38 -22 -60t-62 -22q-47 0 -65.5 27t-18.5 75v41q-52 -73 -141.5 -112t-186.5 -39q-155 0 -250.5 86t-95.5 239zM276 303q0 -82 56 -126t141 -44t156 49q75 51 98 122t23 181v64q-37 -18 -140 -39l-110 -25q-56 -12 -89.5 -23 t-68 -31t-50.5 -51.5t-16 -76.5zM362 1434q0 38 33.5 62t73.5 24q57 0 78 -62l61 -184q4 -12 4 -25q0 -25 -21.5 -42t-49.5 -17q-32 0 -54 31l-108 159q-17 26 -17 54z" />
<glyph unicode="&#xe1;" horiz-adv-x="1067" d="M82 305q0 60 15 106t40.5 77.5t67 55.5t85 38.5t103.5 27.5l174 37q49 10 75 16t50 14t33 13.5t16 16.5t8 20.5t1 28.5q0 91 -58.5 132.5t-154.5 41.5q-93 0 -144.5 -31t-81.5 -113q-14 -38 -31 -51.5t-57 -13.5q-43 0 -69.5 19.5t-26.5 60.5q0 38 33 102q53 94 152 136 t220 42q204 0 298 -84.5t94 -277.5v-649q0 -38 -22 -60t-62 -22q-47 0 -65.5 27t-18.5 75v41q-52 -73 -141.5 -112t-186.5 -39q-155 0 -250.5 86t-95.5 239zM276 303q0 -82 56 -126t141 -44t156 49q75 51 98 122t23 181v64q-37 -18 -140 -39l-110 -25q-56 -12 -89.5 -23 t-68 -31t-50.5 -51.5t-16 -76.5zM453 1253q0 13 4 25l61 180q11 31 30.5 46.5t55.5 15.5q48 0 75.5 -28t27.5 -60q0 -26 -19 -54l-106 -157q-20 -31 -58 -31q-29 0 -50 18t-21 45z" />
<glyph unicode="&#xe2;" horiz-adv-x="1067" d="M82 305q0 60 15 106t40.5 77.5t67 55.5t85 38.5t103.5 27.5l174 37q49 10 75 16t50 14t33 13.5t16 16.5t8 20.5t1 28.5q0 91 -58.5 132.5t-154.5 41.5q-93 0 -144.5 -31t-81.5 -113q-14 -38 -31 -51.5t-57 -13.5q-43 0 -69.5 19.5t-26.5 60.5q0 38 33 102q53 94 152 136 t220 42q204 0 298 -84.5t94 -277.5v-649q0 -38 -22 -60t-62 -22q-47 0 -65.5 27t-18.5 75v41q-52 -73 -141.5 -112t-186.5 -39q-155 0 -250.5 86t-95.5 239zM276 303q0 -82 56 -126t141 -44t156 49q75 51 98 122t23 181v64q-37 -18 -140 -39l-110 -25q-56 -12 -89.5 -23 t-68 -31t-50.5 -51.5t-16 -76.5zM276 1260q0 16 13 36l125 177q35 49 129 49q96 0 131 -49l121 -177q14 -21 14 -43q0 -23 -25 -41t-49 -18q-31 0 -55 27l-137 163l-137 -163q-24 -27 -56 -27q-28 0 -51 19t-23 47z" />
<glyph unicode="&#xe3;" horiz-adv-x="1067" d="M82 305q0 60 15 106t40.5 77.5t67 55.5t85 38.5t103.5 27.5l174 37q49 10 75 16t50 14t33 13.5t16 16.5t8 20.5t1 28.5q0 91 -58.5 132.5t-154.5 41.5q-93 0 -144.5 -31t-81.5 -113q-14 -38 -31 -51.5t-57 -13.5q-43 0 -69.5 19.5t-26.5 60.5q0 38 33 102q53 94 152 136 t220 42q204 0 298 -84.5t94 -277.5v-649q0 -38 -22 -60t-62 -22q-47 0 -65.5 27t-18.5 75v41q-52 -73 -141.5 -112t-186.5 -39q-155 0 -250.5 86t-95.5 239zM264 1272q0 57 11 103t44 81t84 35q43 0 91 -25l120 -63q42 -21 62 -21t33 15.5t22 56.5q7 32 18 41.5t31 9.5 q22 0 33.5 -11.5t13.5 -24t2 -33.5q0 -36 -7 -73t-21 -72.5t-41.5 -58t-63.5 -22.5q-47 0 -100 27l-111 57q-52 25 -73 25q-23 0 -37.5 -16t-14.5 -46q0 -29 -9.5 -44t-37.5 -15q-17 0 -28 6t-15 19t-5 22t-1 27zM276 303q0 -82 56 -126t141 -44t156 49q75 51 98 122t23 181 v64q-37 -18 -140 -39l-110 -25q-56 -12 -89.5 -23t-68 -31t-50.5 -51.5t-16 -76.5z" />
<glyph unicode="&#xe4;" horiz-adv-x="1067" d="M82 305q0 60 15 106t40.5 77.5t67 55.5t85 38.5t103.5 27.5l174 37q49 10 75 16t50 14t33 13.5t16 16.5t8 20.5t1 28.5q0 91 -58.5 132.5t-154.5 41.5q-93 0 -144.5 -31t-81.5 -113q-14 -38 -31 -51.5t-57 -13.5q-43 0 -69.5 19.5t-26.5 60.5q0 38 33 102q53 94 152 136 t220 42q204 0 298 -84.5t94 -277.5v-649q0 -38 -22 -60t-62 -22q-47 0 -65.5 27t-18.5 75v41q-52 -73 -141.5 -112t-186.5 -39q-155 0 -250.5 86t-95.5 239zM203 1341q0 49 31 83t79 34q53 0 86 -32t33 -85q0 -52 -31.5 -82t-85.5 -30q-51 0 -81.5 30.5t-30.5 81.5zM276 303 q0 -82 56 -126t141 -44t156 49q75 51 98 122t23 181v64q-37 -18 -140 -39l-110 -25q-56 -12 -89.5 -23t-68 -31t-50.5 -51.5t-16 -76.5zM647 1341q0 49 31 83t82 34q53 0 85 -31.5t32 -85.5q0 -53 -32 -82.5t-85 -29.5q-51 0 -82 30.5t-31 81.5z" />
<glyph unicode="&#xe5;" horiz-adv-x="1067" d="M82 305q0 60 15 106t40.5 77.5t67 55.5t85 38.5t103.5 27.5l174 37q49 10 75 16t50 14t33 13.5t16 16.5t8 20.5t1 28.5q0 91 -58.5 132.5t-154.5 41.5q-93 0 -144.5 -31t-81.5 -113q-14 -38 -31 -51.5t-57 -13.5q-43 0 -69.5 19.5t-26.5 60.5q0 38 33 102q53 94 152 136 t220 42q204 0 298 -84.5t94 -277.5v-649q0 -38 -22 -60t-62 -22q-47 0 -65.5 27t-18.5 75v41q-52 -73 -141.5 -112t-186.5 -39q-155 0 -250.5 86t-95.5 239zM276 303q0 -82 56 -126t141 -44t156 49q75 51 98 122t23 181v64q-37 -18 -140 -39l-110 -25q-56 -12 -89.5 -23 t-68 -31t-50.5 -51.5t-16 -76.5zM342 1348q0 83 57 138.5t142 55.5t139.5 -53t54.5 -137q0 -88 -54.5 -145.5t-141.5 -57.5q-85 0 -141 58t-56 141zM451 1346q0 -38 25 -62t63 -24q40 0 63 26t23 64q0 37 -24 60.5t-62 23.5q-39 0 -63.5 -24.5t-24.5 -63.5z" />
<glyph unicode="&#xe6;" horiz-adv-x="1792" d="M82 291q0 68 21 121.5t53.5 89t84.5 61t100.5 39t115.5 21t115 9t114 1.5h74v37q0 131 -47.5 196.5t-175.5 65.5q-28 0 -48 -1.5t-50 -9t-51.5 -21.5t-43 -41t-33.5 -64q-16 -47 -37.5 -62.5t-58.5 -15.5q-38 0 -64 22.5t-26 59.5q0 60 49 127q110 157 367 157 q58 0 111 -10.5t102.5 -32.5t83 -63.5t43.5 -97.5q125 204 368 204q160 0 267 -83t155 -236q31 -95 31 -178q0 -105 -92 -105h-668q14 -93 23 -125q65 -213 278 -213q88 0 143.5 29.5t96.5 93.5q4 6 18 30t21 33t23.5 19t35.5 10q39 0 68.5 -25t29.5 -63q0 -53 -53 -118 q-67 -84 -169 -128t-214 -44q-262 0 -395 213q-57 -116 -158 -164.5t-241 -48.5q-160 0 -263.5 79t-103.5 232zM274 303q0 -80 56.5 -123t138.5 -43q145 0 215 90t70 236v14h-78q-54 0 -88.5 -1t-81 -4.5t-76 -10t-62.5 -19.5t-51.5 -31t-30.5 -45.5t-12 -62.5zM950 635h549 q-2 128 -72 206.5t-198 78.5q-119 0 -188 -79.5t-91 -205.5z" />
<glyph unicode="&#xe7;" horiz-adv-x="1067" d="M90 537q0 159 55 280t170 192.5t279 71.5q123 0 213.5 -37t157.5 -126q22 -29 40.5 -67t18.5 -65q0 -42 -28.5 -67t-71.5 -25q-28 0 -48 13.5t-29 28.5t-22 44q-63 146 -239 146q-79 0 -138.5 -33t-93.5 -89t-50.5 -122t-16.5 -141q0 -64 8.5 -119.5t30.5 -108.5 t55.5 -90.5t86 -60.5t120.5 -23q199 0 270 187q18 46 37.5 63t50.5 17q39 0 68.5 -24.5t29.5 -62.5q0 -52 -45 -126t-90 -111q-118 -95 -295 -102l-32 -109h10q81 0 130.5 -43.5t49.5 -110.5q0 -28 -9.5 -56t-32 -57t-69 -47t-110.5 -18q-92 0 -164 37q-51 25 -51 57 q0 24 13 40t36 16q18 0 41 -13q66 -34 102 -34q54 0 77.5 23.5t23.5 58.5t-28 53t-75 18q-45 0 -45 33q0 14 47 156q-213 18 -325.5 170t-112.5 383z" />
<glyph unicode="&#xe8;" d="M90 512q0 94 20 178t61 155.5t100 124t141 82t180 29.5q107 0 191 -33.5t135.5 -86t85 -122t46.5 -135.5t13 -133q0 -44 -24.5 -68t-67.5 -24h-686q0 -150 77 -241q50 -58 105 -79.5t131 -21.5q177 0 256 142q25 45 41.5 60t46.5 15q42 0 74.5 -24t32.5 -64 q0 -44 -58 -116q-140 -170 -393 -170q-118 0 -209.5 31.5t-163.5 111.5q-44 48 -73.5 108.5t-41.5 118t-16 94.5t-4 68zM285 633h585q-8 127 -79 206t-197 79q-253 0 -309 -285zM403 1434q0 38 33.5 62t73.5 24q57 0 78 -62l61 -184q4 -12 4 -25q0 -25 -21.5 -42t-49.5 -17 q-32 0 -54 31l-108 159q-17 26 -17 54z" />
<glyph unicode="&#xe9;" d="M90 512q0 94 20 178t61 155.5t100 124t141 82t180 29.5q107 0 191 -33.5t135.5 -86t85 -122t46.5 -135.5t13 -133q0 -44 -24.5 -68t-67.5 -24h-686q0 -150 77 -241q50 -58 105 -79.5t131 -21.5q177 0 256 142q25 45 41.5 60t46.5 15q42 0 74.5 -24t32.5 -64 q0 -44 -58 -116q-140 -170 -393 -170q-118 0 -209.5 31.5t-163.5 111.5q-44 48 -73.5 108.5t-41.5 118t-16 94.5t-4 68zM285 633h585q-8 127 -79 206t-197 79q-253 0 -309 -285zM496 1253q0 13 4 25l61 180q11 31 30.5 46.5t55.5 15.5q48 0 75.5 -28t27.5 -60q0 -26 -19 -54 l-106 -157q-20 -31 -58 -31q-29 0 -50 18t-21 45z" />
<glyph unicode="&#xea;" d="M90 512q0 94 20 178t61 155.5t100 124t141 82t180 29.5q107 0 191 -33.5t135.5 -86t85 -122t46.5 -135.5t13 -133q0 -44 -24.5 -68t-67.5 -24h-686q0 -150 77 -241q50 -58 105 -79.5t131 -21.5q177 0 256 142q25 45 41.5 60t46.5 15q42 0 74.5 -24t32.5 -64 q0 -44 -58 -116q-140 -170 -393 -170q-118 0 -209.5 31.5t-163.5 111.5q-44 48 -73.5 108.5t-41.5 118t-16 94.5t-4 68zM285 633h585q-8 127 -79 206t-197 79q-253 0 -309 -285zM328 1260q0 18 12 36l125 177q35 49 129 49q96 0 131 -49l121 -177q14 -21 14 -43 q0 -23 -25 -41t-49 -18q-31 0 -55 27l-137 163l-137 -163q-24 -27 -56 -27q-28 0 -50.5 19t-22.5 47z" />
<glyph unicode="&#xeb;" d="M90 512q0 94 20 178t61 155.5t100 124t141 82t180 29.5q107 0 191 -33.5t135.5 -86t85 -122t46.5 -135.5t13 -133q0 -44 -24.5 -68t-67.5 -24h-686q0 -150 77 -241q50 -58 105 -79.5t131 -21.5q177 0 256 142q25 45 41.5 60t46.5 15q42 0 74.5 -24t32.5 -64 q0 -44 -58 -116q-140 -170 -393 -170q-118 0 -209.5 31.5t-163.5 111.5q-44 48 -73.5 108.5t-41.5 118t-16 94.5t-4 68zM256 1341q0 48 31.5 82.5t79.5 34.5q53 0 85.5 -31.5t32.5 -85.5q0 -52 -31 -82t-85 -30q-51 0 -82 30.5t-31 81.5zM285 633h585q-8 127 -79 206 t-197 79q-253 0 -309 -285zM700 1341q0 49 31 83t82 34q53 0 85 -31.5t32 -85.5q0 -53 -32 -82.5t-85 -29.5q-51 0 -82 30.5t-31 81.5z" />
<glyph unicode="&#xec;" horiz-adv-x="468" d="M63 1434q0 38 33.5 62t73.5 24q57 0 78 -62l61 -184q4 -12 4 -25q0 -25 -21.5 -42t-49.5 -17q-32 0 -54 31l-108 159q-17 26 -17 54zM141 80v901q0 45 24.5 68.5t65.5 23.5q46 0 71.5 -24t25.5 -68v-899q0 -43 -25.5 -68.5t-64.5 -25.5q-43 0 -70 24.5t-27 67.5z" />
<glyph unicode="&#xed;" horiz-adv-x="468" d="M141 80v901q0 45 24.5 68.5t65.5 23.5q46 0 71.5 -24t25.5 -68v-899q0 -43 -25.5 -68.5t-64.5 -25.5q-43 0 -70 24.5t-27 67.5zM154 1253q0 13 4 25l61 180q11 31 30.5 46.5t55.5 15.5q48 0 75.5 -28t27.5 -60q0 -26 -19 -54l-106 -157q-20 -31 -58 -31q-29 0 -50 18 t-21 45z" />
<glyph unicode="&#xee;" horiz-adv-x="468" d="M-35 1260q0 18 12 36l125 177q35 49 129 49q96 0 131 -49l121 -177q15 -22 15 -43q0 -23 -25 -41t-49 -18q-31 0 -55 27l-138 163l-137 -163q-24 -27 -55 -27q-28 0 -51 19t-23 47zM141 80v901q0 45 24.5 68.5t65.5 23.5q46 0 71.5 -24t25.5 -68v-899q0 -43 -25.5 -68.5 t-64.5 -25.5q-43 0 -70 24.5t-27 67.5z" />
<glyph unicode="&#xef;" horiz-adv-x="468" d="M-106 1341q0 49 31 83t79 34q53 0 86 -32t33 -85q0 -52 -31.5 -82t-85.5 -30q-51 0 -81.5 30.5t-30.5 81.5zM141 80v901q0 45 24.5 68.5t65.5 23.5q46 0 71.5 -24t25.5 -68v-899q0 -43 -25.5 -68.5t-64.5 -25.5q-43 0 -70 24.5t-27 67.5zM338 1341q0 49 31 83t82 34 q53 0 84.5 -31.5t31.5 -85.5q0 -53 -31.5 -82.5t-84.5 -29.5q-51 0 -82 30.5t-31 81.5z" />
<glyph unicode="&#xf0;" horiz-adv-x="1193" d="M90 512q0 167 37 262q56 145 172.5 227t269.5 82q75 0 133.5 -24t112.5 -78q-68 148 -139 219l-277 -78q-16 -4 -28 -4q-29 0 -49.5 20.5t-20.5 49.5q0 30 16.5 46t49.5 26l180 53q-2 3 -10.5 14.5t-12 17.5t-9.5 16t-8.5 19t-2.5 17q0 40 28 65t68 25q66 0 176 -115 l127 33q18 6 39 6q28 0 47 -20t19 -48q0 -49 -54 -65l-73 -25q225 -277 225 -688q0 -100 -17.5 -185.5t-56.5 -160t-97 -127t-144 -82.5t-193 -30q-117 0 -208 33t-146.5 85t-91 124t-49 142.5t-13.5 147.5zM283 530q0 -67 9 -123.5t32 -108.5t58 -88t90.5 -57.5 t127.5 -21.5q42 0 81 9.5t82 36.5t75 69t52.5 115t20.5 167q0 86 -17 156t-53.5 125.5t-99 86t-147.5 30.5q-84 0 -146.5 -32.5t-97 -89.5t-51 -125t-16.5 -149z" />
<glyph unicode="&#xf1;" d="M141 76v909q0 41 26.5 64.5t63.5 23.5q95 0 95 -98v-47q108 153 327 153q357 0 357 -393v-608q0 -44 -25 -68t-72 -24q-41 0 -66.5 24.5t-25.5 65.5v551q0 43 -1.5 71t-7.5 65.5t-19.5 62t-35 47.5t-57 34t-82.5 11q-78 0 -136 -28.5t-90 -78t-47 -107t-15 -124.5v-502 q0 -45 -25.5 -68.5t-71.5 -23.5q-41 0 -66.5 24t-25.5 64zM305 1272q0 57 11 103t44 81t84 35q43 0 91 -25l120 -63q42 -21 62 -21t33 15.5t22 56.5q7 32 18 41.5t31 9.5q22 0 33.5 -11.5t13.5 -24t2 -33.5q0 -36 -7 -73t-21 -72.5t-41.5 -58t-63.5 -22.5q-47 0 -100 27 l-111 57q-52 25 -73 25q-23 0 -37.5 -16t-14.5 -46q0 -29 -9.5 -44t-37.5 -15q-17 0 -28 6t-15 19t-5 22t-1 27z" />
<glyph unicode="&#xf2;" horiz-adv-x="1193" d="M90 535q0 251 131 398.5t381 147.5q244 0 373 -146.5t129 -393.5q0 -47 -4 -91.5t-18 -102.5t-36 -107t-61.5 -98.5t-92 -84t-131 -56t-173.5 -21.5q-102 0 -183 25t-134 70t-90 99t-56 119.5t-27 123t-8 118.5zM283 530q0 -67 9 -123.5t32 -108.5t58 -88t90.5 -57.5 t127.5 -21.5q70 0 124.5 23t89 61t57 92t31.5 110.5t9 121.5q0 82 -18 150t-55 122t-99 84.5t-145 30.5q-84 0 -146.5 -32.5t-97 -89.5t-51 -125t-16.5 -149zM428 1434q0 38 33.5 62t73.5 24q56 0 77 -62l62 -184q4 -12 4 -25q0 -25 -22 -42t-50 -17q-31 0 -53 31l-109 159 q-16 24 -16 54z" />
<glyph unicode="&#xf3;" horiz-adv-x="1193" d="M90 535q0 251 131 398.5t381 147.5q244 0 373 -146.5t129 -393.5q0 -47 -4 -91.5t-18 -102.5t-36 -107t-61.5 -98.5t-92 -84t-131 -56t-173.5 -21.5q-102 0 -183 25t-134 70t-90 99t-56 119.5t-27 123t-8 118.5zM283 530q0 -67 9 -123.5t32 -108.5t58 -88t90.5 -57.5 t127.5 -21.5q70 0 124.5 23t89 61t57 92t31.5 110.5t9 121.5q0 82 -18 150t-55 122t-99 84.5t-145 30.5q-84 0 -146.5 -32.5t-97 -89.5t-51 -125t-16.5 -149zM520 1253q0 13 4 25l62 180q11 31 30.5 46.5t55.5 15.5q48 0 75 -28t27 -60q0 -27 -18 -54l-107 -157 q-20 -31 -57 -31q-29 0 -50.5 18t-21.5 45z" />
<glyph unicode="&#xf4;" horiz-adv-x="1193" d="M90 535q0 251 131 398.5t381 147.5q244 0 373 -146.5t129 -393.5q0 -47 -4 -91.5t-18 -102.5t-36 -107t-61.5 -98.5t-92 -84t-131 -56t-173.5 -21.5q-102 0 -183 25t-134 70t-90 99t-56 119.5t-27 123t-8 118.5zM283 530q0 -67 9 -123.5t32 -108.5t58 -88t90.5 -57.5 t127.5 -21.5q70 0 124.5 23t89 61t57 92t31.5 110.5t9 121.5q0 82 -18 150t-55 122t-99 84.5t-145 30.5q-84 0 -146.5 -32.5t-97 -89.5t-51 -125t-16.5 -149zM330 1260q0 18 12 36l125 177q35 49 129 49q96 0 131 -49l121 -177q14 -21 14 -43q0 -23 -25 -41t-49 -18 q-31 0 -55 27l-137 163l-137 -163q-24 -27 -56 -27q-28 0 -50.5 19t-22.5 47z" />
<glyph unicode="&#xf5;" horiz-adv-x="1193" d="M90 535q0 251 131 398.5t381 147.5q244 0 373 -146.5t129 -393.5q0 -47 -4 -91.5t-18 -102.5t-36 -107t-61.5 -98.5t-92 -84t-131 -56t-173.5 -21.5q-102 0 -183 25t-134 70t-90 99t-56 119.5t-27 123t-8 118.5zM283 530q0 -67 9 -123.5t32 -108.5t58 -88t90.5 -57.5 t127.5 -21.5q70 0 124.5 23t89 61t57 92t31.5 110.5t9 121.5q0 82 -18 150t-55 122t-99 84.5t-145 30.5q-84 0 -146.5 -32.5t-97 -89.5t-51 -125t-16.5 -149zM328 1272q0 57 11 103t44 81t84 35q42 0 90 -25l121 -63q42 -21 61 -21q41 0 56 72q7 32 18 41.5t31 9.5 q22 0 33.5 -11.5t13.5 -24t2 -33.5q0 -36 -7 -73t-21 -72.5t-41.5 -58t-63.5 -22.5q-48 0 -101 27l-110 57q-52 25 -74 25q-23 0 -37 -16t-14 -46q0 -29 -9.5 -44t-37.5 -15q-17 0 -28 6t-15 19t-5 22t-1 27z" />
<glyph unicode="&#xf6;" horiz-adv-x="1193" d="M90 535q0 251 131 398.5t381 147.5q244 0 373 -146.5t129 -393.5q0 -47 -4 -91.5t-18 -102.5t-36 -107t-61.5 -98.5t-92 -84t-131 -56t-173.5 -21.5q-102 0 -183 25t-134 70t-90 99t-56 119.5t-27 123t-8 118.5zM250 1341q0 49 31 83t79 34q53 0 86 -32t33 -85 q0 -52 -31.5 -82t-85.5 -30q-51 0 -81.5 30.5t-30.5 81.5zM283 530q0 -67 9 -123.5t32 -108.5t58 -88t90.5 -57.5t127.5 -21.5q70 0 124.5 23t89 61t57 92t31.5 110.5t9 121.5q0 82 -18 150t-55 122t-99 84.5t-145 30.5q-84 0 -146.5 -32.5t-97 -89.5t-51 -125t-16.5 -149z M694 1341q0 49 31 83t82 34q53 0 85 -31.5t32 -85.5q0 -53 -32 -82.5t-85 -29.5q-51 0 -82 30.5t-31 81.5z" />
<glyph unicode="&#xf7;" horiz-adv-x="1482" d="M150 616q0 86 81 86h1026q34 0 55 -24t21 -62q0 -88 -82 -88h-1026q-34 0 -54.5 24t-20.5 64zM637 281q0 55 29 87.5t79 32.5q48 0 76.5 -32.5t28.5 -87.5t-29.5 -88t-75.5 -33q-47 0 -77.5 33.5t-30.5 87.5zM637 948q0 56 29.5 89.5t78.5 33.5q47 0 76 -33t29 -88 t-29.5 -89t-75.5 -34q-47 0 -77.5 33.5t-30.5 87.5z" />
<glyph unicode="&#xf8;" horiz-adv-x="1193" d="M68 57q0 23 14 37l92 94q-84 130 -84 342q0 251 132.5 401t375.5 150q223 0 348 -125l74 74q19 19 41 19q23 0 40 -17.5t17 -40.5t-14 -37l-84 -84q86 -134 86 -327q0 -268 -139 -416q-136 -147 -379 -147q-122 0 -198 31t-144 87l-84 -84q-16 -16 -35 -16 q-24 0 -41.5 17.5t-17.5 41.5zM279 541q0 -123 30 -215l514 505q-77 97 -221 97q-151 0 -237 -110t-86 -277zM369 223q75 -94 223 -94q159 0 246 115q77 103 77 282q0 116 -32 205z" />
<glyph unicode="&#xf9;" d="M141 379v602q0 45 25.5 68.5t66.5 23.5q45 0 72 -24t27 -68v-518q0 -45 1 -73.5t5 -66t12 -61t22.5 -49t35 -39.5t51.5 -23.5t71 -9.5q137 0 213 89.5t76 230.5v520q0 45 25.5 68.5t66.5 23.5q45 0 72 -23.5t27 -68.5v-903q0 -43 -24.5 -66.5t-67.5 -23.5q-55 0 -73 30 t-18 86v31q-63 -87 -138.5 -121t-188.5 -34q-97 0 -168 30t-112 85.5t-60 125.5t-19 158zM403 1434q0 38 33.5 62t73.5 24q57 0 78 -62l61 -184q4 -12 4 -25q0 -25 -21.5 -42t-49.5 -17q-32 0 -54 31l-108 159q-17 26 -17 54z" />
<glyph unicode="&#xfa;" d="M141 379v602q0 45 25.5 68.5t66.5 23.5q45 0 72 -24t27 -68v-518q0 -45 1 -73.5t5 -66t12 -61t22.5 -49t35 -39.5t51.5 -23.5t71 -9.5q137 0 213 89.5t76 230.5v520q0 45 25.5 68.5t66.5 23.5q45 0 72 -23.5t27 -68.5v-903q0 -43 -24.5 -66.5t-67.5 -23.5q-55 0 -73 30 t-18 86v31q-63 -87 -138.5 -121t-188.5 -34q-97 0 -168 30t-112 85.5t-60 125.5t-19 158zM496 1253q0 13 4 25l61 180q11 31 30.5 46.5t55.5 15.5q48 0 75.5 -28t27.5 -60q0 -26 -19 -54l-106 -157q-20 -31 -58 -31q-29 0 -50 18t-21 45z" />
<glyph unicode="&#xfb;" d="M141 379v602q0 45 25.5 68.5t66.5 23.5q45 0 72 -24t27 -68v-518q0 -45 1 -73.5t5 -66t12 -61t22.5 -49t35 -39.5t51.5 -23.5t71 -9.5q137 0 213 89.5t76 230.5v520q0 45 25.5 68.5t66.5 23.5q45 0 72 -23.5t27 -68.5v-903q0 -43 -24.5 -66.5t-67.5 -23.5q-55 0 -73 30 t-18 86v31q-63 -87 -138.5 -121t-188.5 -34q-97 0 -168 30t-112 85.5t-60 125.5t-19 158zM305 1260q0 18 12 36l125 177q35 49 129 49q96 0 131 -49l121 -177q15 -22 15 -43q0 -23 -25 -41t-49 -18q-31 0 -55 27l-138 163l-137 -163q-24 -27 -55 -27q-28 0 -51 19t-23 47z " />
<glyph unicode="&#xfc;" d="M141 379v602q0 45 25.5 68.5t66.5 23.5q45 0 72 -24t27 -68v-518q0 -45 1 -73.5t5 -66t12 -61t22.5 -49t35 -39.5t51.5 -23.5t71 -9.5q137 0 213 89.5t76 230.5v520q0 45 25.5 68.5t66.5 23.5q45 0 72 -23.5t27 -68.5v-903q0 -43 -24.5 -66.5t-67.5 -23.5q-55 0 -73 30 t-18 86v31q-63 -87 -138.5 -121t-188.5 -34q-97 0 -168 30t-112 85.5t-60 125.5t-19 158zM238 1341q0 49 31 83t79 34q53 0 86 -32t33 -85q0 -52 -31.5 -82t-85.5 -30q-51 0 -81.5 30.5t-30.5 81.5zM682 1341q0 49 31 83t82 34q53 0 84.5 -31.5t31.5 -85.5 q0 -53 -31.5 -82.5t-84.5 -29.5q-51 0 -82 30.5t-31 81.5z" />
<glyph unicode="&#xfd;" horiz-adv-x="894" d="M0 985q0 42 31.5 65t74.5 23q66 0 87 -61l272 -758l244 758q19 61 84 61q41 0 72.5 -24t31.5 -64q0 -15 -6 -33l-342 -975q-52 -146 -82 -197q-65 -112 -180 -138q-40 -9 -90 -9q-37 0 -60.5 3t-48.5 12.5t-37 31.5t-12 56q0 74 57 74q12 0 46.5 -5.5t50.5 -5.5 q51 0 96.5 35t66.5 96l25 72l-373 942q-8 24 -8 41zM369 1253q0 13 4 25l61 180q11 31 30.5 46.5t55.5 15.5q48 0 75.5 -28t27.5 -60q0 -26 -19 -54l-106 -157q-20 -31 -58 -31q-29 0 -50 18t-21 45z" />
<glyph unicode="&#xfe;" horiz-adv-x="1193" d="M141 -305v1671q0 41 25.5 66.5t66.5 25.5q45 0 72 -24t27 -68v-426q120 141 313 141q113 0 202.5 -45t144.5 -121t83.5 -172t28.5 -204t-24.5 -204t-74 -177.5t-136 -129.5t-199.5 -48q-106 0 -180.5 34.5t-157.5 110.5v-430q0 -45 -27 -68.5t-72 -23.5q-39 0 -65.5 25 t-26.5 67zM328 547q0 -61 8.5 -117.5t30 -112t54.5 -96t85.5 -65.5t118.5 -25q131 0 207.5 98t76.5 316q0 59 -7.5 111t-27.5 103t-51.5 87t-82 58t-115.5 22q-64 0 -115 -21t-84.5 -56.5t-56 -85t-32 -103t-9.5 -113.5z" />
<glyph unicode="&#xff;" horiz-adv-x="894" d="M0 985q0 42 31.5 65t74.5 23q66 0 87 -61l272 -758l244 758q19 61 84 61q41 0 72.5 -24t31.5 -64q0 -15 -6 -33l-342 -975q-52 -146 -82 -197q-65 -112 -180 -138q-40 -9 -90 -9q-37 0 -60.5 3t-48.5 12.5t-37 31.5t-12 56q0 74 57 74q12 0 46.5 -5.5t50.5 -5.5 q51 0 96.5 35t66.5 96l25 72l-373 942q-8 24 -8 41zM109 1341q0 49 31 83t79 34q53 0 86 -32t33 -85q0 -52 -31.5 -82t-85.5 -30q-51 0 -81.5 30.5t-30.5 81.5zM553 1341q0 49 31 83t82 34q53 0 84.5 -31.5t31.5 -85.5q0 -53 -31.5 -82.5t-84.5 -29.5q-51 0 -82 30.5 t-31 81.5z" />
<glyph unicode="&#x131;" horiz-adv-x="468" d="M141 80v901q0 45 24.5 68.5t65.5 23.5q46 0 71.5 -24t25.5 -68v-899q0 -43 -25.5 -68.5t-64.5 -25.5q-43 0 -70 24.5t-27 67.5z" />
<glyph unicode="&#x141;" horiz-adv-x="1110" d="M0 440q0 40 35 64l125 94v768q0 47 27 69.5t71 22.5q45 0 71.5 -23t26.5 -69v-621l318 240q24 19 49 19q34 0 61 -29t27 -62q0 -37 -35 -63l-420 -315v-357h678q88 0 88 -88q0 -42 -22 -66t-66 -24h-778q-51 0 -73.5 23t-22.5 73v291q-6 -4 -18.5 -13t-18.5 -12.5 t-16.5 -7.5t-20.5 -4q-33 0 -59.5 28.5t-26.5 61.5z" />
<glyph unicode="&#x142;" horiz-adv-x="468" d="M0 680q0 44 43 68l98 57v563q0 41 24.5 65.5t65.5 24.5q44 0 70.5 -23.5t26.5 -66.5v-453q27 23 59 23q33 0 57.5 -29t24.5 -63q0 -43 -43 -68l-98 -59v-639q0 -42 -24 -67t-66 -25q-45 0 -71 24t-26 68v528q-40 -22 -57 -22q-34 0 -59 29.5t-25 64.5z" />
<glyph unicode="&#x152;" horiz-adv-x="2347" d="M104 717q0 160 45.5 296.5t131 238t217.5 159t295 57.5q152 0 271.5 -49t213.5 -159v73q0 56 18.5 84.5t77.5 28.5h793q39 0 62.5 -23.5t23.5 -62.5q0 -90 -86 -90h-703v-449h660q40 0 61 -24.5t21 -63.5q0 -38 -22 -60t-60 -22h-660v-473h729q40 0 64 -24t24 -62 q0 -44 -22.5 -68t-65.5 -24h-813q-94 0 -94 96v125q-145 -241 -510 -241q-159 0 -287.5 56.5t-212 156t-128 233.5t-44.5 291zM311 727q0 -94 17.5 -178t55.5 -157.5t93.5 -127t136.5 -84t179 -30.5q123 0 217.5 45.5t151.5 125t85.5 180.5t28.5 218q0 116 -28.5 218 t-85 184.5t-152 130.5t-219.5 48q-121 0 -215 -46t-151 -126.5t-85.5 -182t-28.5 -218.5z" />
<glyph unicode="&#x153;" horiz-adv-x="1961" d="M90 522q0 162 56 287t173 199.5t281 74.5q267 0 401 -200q71 98 175 149t227 51q163 0 275 -80t163 -233q33 -97 33 -190q0 -49 -22.5 -71t-69.5 -22h-686v-18q0 -149 88 -237.5t235 -88.5q166 0 238 125q5 8 14 25.5t14.5 25t15.5 17.5t23.5 14t32.5 4q38 0 68 -22 t30 -60q0 -47 -61 -122q-142 -170 -377 -170q-140 0 -237.5 45t-186.5 151q-62 -98 -170.5 -148.5t-230.5 -50.5q-246 0 -374 147.5t-128 397.5zM287 528q0 -80 15.5 -147t49.5 -124t96 -89.5t148 -32.5q79 0 138.5 30.5t93.5 84t50.5 118.5t16.5 142q0 414 -307 414 q-68 0 -120.5 -22.5t-86 -60t-55.5 -89.5t-30.5 -107t-8.5 -117zM1102 641h569q-8 124 -80.5 203.5t-193.5 79.5q-119 0 -199 -81t-96 -202z" />
<glyph unicode="&#x160;" horiz-adv-x="1280" d="M72 389q0 52 38.5 74t77.5 22q70 0 82 -59q10 -43 23.5 -78t42 -73.5t67.5 -64.5t101.5 -43t142.5 -17q77 0 136.5 16.5t93 41.5t55 58.5t28.5 62.5t7 58t-4 50.5t-21 51.5t-46.5 54.5t-85.5 51t-134 48.5l-197 55q-42 12 -66 19.5t-65.5 24t-66.5 33t-56 44.5 t-48.5 60.5t-29.5 78.5t-12 101q0 186 125.5 297.5t366.5 111.5q239 0 370 -110q59 -49 99.5 -123t40.5 -119q0 -44 -30 -69t-73 -25q-25 0 -40 8t-29 35q-4 8 -18 36.5t-21 41.5t-24.5 38.5t-32.5 39t-41.5 32.5t-54.5 28.5t-68 16.5t-87 7q-122 0 -202 -55.5t-80 -168.5 q0 -35 10 -61.5t25.5 -44.5t49.5 -34.5t66.5 -27.5t90.5 -28l225 -66q89 -26 155 -63t104 -76t61 -87.5t30.5 -91.5t7.5 -95q0 -94 -32.5 -168.5t-85 -122t-123.5 -78.5t-143 -44t-148 -13q-110 0 -216 28.5t-177 85.5q-59 46 -99 112.5t-52.5 111.5t-12.5 71zM397 1769 q0 32 25.5 54t58.5 22q45 0 66 -35l90 -135l106 140q22 30 56 30q33 0 60.5 -20.5t27.5 -52.5q0 -27 -21 -48l-90 -104q-40 -47 -139 -47q-101 0 -141 49l-82 100q-17 19 -17 47z" />
<glyph unicode="&#x161;" horiz-adv-x="980" d="M70 295q0 46 33 66t67 20q54 0 70 -45q2 -5 10 -28.5t15 -38t20 -39t31.5 -40t44 -31.5t62 -24t81.5 -8q92 0 151.5 44.5t59.5 115.5q0 31 -12 55.5t-26.5 39t-47 29t-51.5 21t-62 19.5l-119 34q-155 45 -220.5 118t-65.5 173q0 16 2 34t10.5 49.5t23 59.5t42.5 58.5 t66 52.5t97 36.5t131 14.5q98 0 174 -25t117.5 -60t68 -76.5t34.5 -69.5t8 -45q0 -41 -28 -60.5t-58 -19.5q-31 0 -46.5 16t-41.5 66q-67 131 -236 131q-88 0 -133 -39t-45 -98q0 -27 10.5 -49t23.5 -35t40.5 -26.5t46 -19.5l55.5 -18l133 -41q76 -24 131.5 -53.5 t86.5 -58.5t49 -65t23 -65.5t5 -66.5q0 -142 -103.5 -232.5t-305.5 -90.5q-199 0 -310 94q-61 52 -86.5 117.5t-25.5 103.5zM225 1454q0 28 23 47t51 19q31 0 55 -27l138 -164l137 164q24 27 55 27q24 0 49 -18.5t25 -41.5q0 -20 -15 -43l-120 -176q-35 -49 -131 -49 q-95 0 -130 49l-124 176q-13 19 -13 37z" />
<glyph unicode="&#x178;" d="M0 1368q0 38 31.5 64t68.5 26q56 0 84 -45l396 -629l393 629q27 45 78 45q38 0 70 -27.5t32 -64.5q0 -26 -18 -53l-469 -729v-504q0 -44 -27 -68t-70 -24q-42 0 -68 25t-26 67v504l-459 729q-16 27 -16 55zM217 1702q0 54 36 89.5t89 35.5t88 -36t35 -89 q0 -56 -35.5 -89.5t-91.5 -33.5q-52 0 -86.5 35t-34.5 88zM698 1702q0 52 33.5 87.5t85.5 35.5q57 0 93 -33.5t36 -89.5q0 -53 -34.5 -88t-86.5 -35q-55 0 -91 34t-36 89z" />
<glyph unicode="&#x17d;" horiz-adv-x="1236" d="M33 115q0 49 28 82l887 1075h-739q-41 0 -63.5 23.5t-22.5 64.5t22.5 63.5t63.5 22.5h928q77 0 77 -88q0 -18 -0.5 -26t-5.5 -22t-16 -28l-905 -1110h809q40 0 62 -23.5t22 -62.5q0 -41 -22.5 -63.5t-61.5 -22.5h-971q-48 0 -70 33.5t-22 81.5zM397 1769q0 32 25.5 54 t58.5 22q45 0 66 -35l90 -135l106 140q22 30 56 30q33 0 60.5 -20.5t27.5 -52.5q0 -27 -21 -48l-90 -104q-40 -47 -139 -47q-101 0 -141 49l-82 100q-17 19 -17 47z" />
<glyph unicode="&#x17e;" horiz-adv-x="980" d="M47 111q0 47 27 79l596 711h-486q-78 0 -78 80q0 38 20.5 59t57.5 21h654q40 0 56.5 -24t16.5 -70q0 -45 -22 -72l-604 -731h561q38 0 59 -21t21 -61q0 -38 -21 -60t-59 -22h-711q-88 0 -88 111zM236 1454q0 28 22.5 47t50.5 19q32 0 56 -27l137 -164l137 164 q24 27 55 27q24 0 49 -18.5t25 -41.5q0 -22 -14 -43l-121 -176q-35 -49 -131 -49q-94 0 -129 49l-125 176q-12 18 -12 37z" />
<glyph unicode="&#x192;" horiz-adv-x="598" d="M-168 -301q0 85 102 92q92 6 118 31.5t36 122.5l109 942h-105q-69 0 -69 65q0 49 25.5 72t64.5 23h100l14 114q8 64 32 114t56.5 82t75.5 52.5t87 28.5t93 8q45 0 72 -14.5t27 -55.5q0 -24 -8.5 -41.5t-19 -26t-32 -14.5t-34.5 -7l-39 -3q-31 -2 -52.5 -11.5t-34 -21.5 t-21 -36.5t-12 -43.5t-7.5 -57l-9 -67h152q32 0 51 -17.5t19 -48.5q0 -40 -22.5 -67t-63.5 -27h-152l-104 -910q-15 -127 -35 -174q-72 -172 -316 -172q-46 0 -72 13.5t-26 54.5z" />
<glyph unicode="&#x2c6;" horiz-adv-x="598" d="M33 1260q0 18 12 36l125 177q35 49 129 49q96 0 131 -49l121 -177q14 -21 14 -43q0 -23 -24.5 -41t-48.5 -18q-32 0 -56 27l-137 163l-137 -163q-24 -27 -56 -27q-28 0 -50.5 19t-22.5 47z" />
<glyph unicode="&#x2c7;" horiz-adv-x="598" d="M33 1454q0 28 22.5 47t50.5 19q32 0 56 -27l137 -164l137 164q24 27 56 27q24 0 48.5 -18.5t24.5 -41.5q0 -22 -14 -43l-121 -176q-35 -49 -131 -49q-94 0 -129 49l-125 176q-12 18 -12 37z" />
<glyph unicode="&#x2d8;" horiz-adv-x="598" d="M2 1399q0 32 19.5 54t50.5 22q23 0 38.5 -12.5t27 -30.5t26.5 -36.5t47 -31t80 -12.5q47 0 81 12.5t52 31t32 36.5t31.5 30.5t40.5 12.5q28 0 48 -19t20 -49q0 -23 -11 -51.5t-36 -58.5t-59.5 -54.5t-86.5 -40.5t-112 -16q-76 0 -135 23t-91 58t-47.5 69t-15.5 63z" />
<glyph unicode="&#x2d9;" horiz-adv-x="598" d="M184 1341q0 51 32 84t83 33q49 0 82 -32t33 -85t-31.5 -82.5t-83.5 -29.5q-53 0 -84 30t-31 82z" />
<glyph unicode="&#x2da;" horiz-adv-x="598" d="M102 1348q0 83 57 138.5t142 55.5t140 -53t55 -137q0 -88 -55 -145.5t-142 -57.5q-85 0 -141 58t-56 141zM211 1346q0 -38 25 -62t63 -24q40 0 63 26t23 64q0 37 -24 60.5t-62 23.5q-39 0 -63.5 -24.5t-24.5 -63.5z" />
<glyph unicode="&#x2db;" horiz-adv-x="598" d="M123 -258q0 30 8.5 59.5t32 67t33 52.5t46 60t36.5 46h139q-80 -107 -102.5 -145t-22.5 -70t18.5 -46.5t45.5 -16l54 -3t45.5 -16t18.5 -47.5q0 -28 -14.5 -48.5t-39 -31t-49 -15t-50.5 -4.5q-82 0 -140.5 39.5t-58.5 118.5z" />
<glyph unicode="&#x2dc;" horiz-adv-x="598" d="M16 1272q0 41 7 77.5t22 69.5t43.5 52.5t67.5 19.5q42 0 90 -25l121 -63q42 -21 61 -21q20 0 33 15.5t22 56.5q7 32 18 41.5t31 9.5q22 0 33.5 -11.5t14 -24t2.5 -33.5q0 -36 -7 -73t-21 -72.5t-41.5 -58t-63.5 -22.5q-48 0 -101 27l-110 57q-52 25 -74 25q-23 0 -37 -16 t-14 -46q0 -29 -9.5 -44t-37.5 -15q-23 0 -34.5 12.5t-13.5 25.5t-2 36z" />
<glyph unicode="&#x2dd;" horiz-adv-x="598" d="M27 1253q0 13 4 25l61 180q11 31 30.5 46.5t55.5 15.5q48 0 75.5 -28t27.5 -60q0 -26 -19 -54l-106 -157q-20 -31 -58 -31q-29 0 -50 18t-21 45zM317 1253q0 10 5 25l61 180q11 31 30.5 46.5t55.5 15.5q48 0 75 -28t27 -60q0 -27 -18 -54l-107 -157q-20 -31 -57 -31 q-29 0 -50.5 18t-21.5 45z" />
<glyph unicode="&#x3a9;" horiz-adv-x="1519" d="M88 82q0 82 76 82h260q-299 179 -299 614q0 316 176 509.5t463 193.5q290 0 456 -180.5t166 -495.5q0 -218 -81.5 -383.5t-233.5 -257.5h283q76 0 76 -82q0 -37 -19.5 -59.5t-50.5 -22.5h-445q-32 0 -51.5 24.5t-19.5 63.5q0 31 13.5 54t55.5 40q126 50 201.5 217.5 t75.5 376.5q0 250 -115.5 397.5t-310.5 147.5q-207 0 -323.5 -153t-116.5 -425q0 -207 74.5 -357.5t203.5 -201.5q48 -19 62 -40.5t14 -55.5q0 -39 -20 -63.5t-52 -24.5h-448q-31 0 -50.5 22.5t-19.5 59.5z" />
<glyph unicode="&#x3c0;" horiz-adv-x="1146" d="M78 895q0 31 17.5 50.5t45.5 19.5h854q28 0 45 -19.5t17 -50.5q0 -72 -66 -72h-53v-551q0 -82 15 -106t69 -27q63 -3 63 -67q0 -40 -22.5 -56t-79.5 -16q-121 0 -165 56t-44 175v592h-412v-751q0 -86 -81 -86q-38 0 -59 23t-21 63v751h-56q-67 0 -67 72z" />
<glyph unicode="&#x2000;" horiz-adv-x="937" />
<glyph unicode="&#x2001;" horiz-adv-x="1874" />
<glyph unicode="&#x2002;" horiz-adv-x="937" />
<glyph unicode="&#x2003;" horiz-adv-x="1874" />
<glyph unicode="&#x2004;" horiz-adv-x="624" />
<glyph unicode="&#x2005;" horiz-adv-x="468" />
<glyph unicode="&#x2006;" horiz-adv-x="312" />
<glyph unicode="&#x2007;" horiz-adv-x="312" />
<glyph unicode="&#x2008;" horiz-adv-x="234" />
<glyph unicode="&#x2009;" horiz-adv-x="374" />
<glyph unicode="&#x200a;" horiz-adv-x="104" />
<glyph unicode="&#x2010;" horiz-adv-x="759" d="M76 616q0 38 21 59t59 21h452q34 0 55 -22.5t21 -57.5q0 -81 -80 -81h-452q-34 0 -55 22t-21 59z" />
<glyph unicode="&#x2011;" horiz-adv-x="759" d="M76 616q0 38 21 59t59 21h452q34 0 55 -22.5t21 -57.5q0 -81 -80 -81h-452q-34 0 -55 22t-21 59z" />
<glyph unicode="&#x2012;" horiz-adv-x="759" d="M76 616q0 38 21 59t59 21h452q34 0 55 -22.5t21 -57.5q0 -81 -80 -81h-452q-34 0 -55 22t-21 59z" />
<glyph unicode="&#x2013;" horiz-adv-x="1224" d="M76 616q0 38 21 59t59 21h917q34 0 55 -22.5t21 -57.5q0 -81 -82 -81h-915q-34 0 -55 22t-21 59z" />
<glyph unicode="&#x2014;" horiz-adv-x="1830" d="M76 616q0 38 21 59t59 21h1523q34 0 55 -22.5t21 -57.5q0 -81 -82 -81h-1521q-34 0 -55 22t-21 59z" />
<glyph unicode="&#x2018;" horiz-adv-x="425" d="M88 1104q0 85 34 171t77.5 135.5t74.5 49.5q20 0 34 -18t14 -39q0 -19 -14.5 -37t-32 -33.5t-32 -52t-14.5 -88.5v-16q9 2 17 2q44 -1 68 -32.5t24 -76.5q0 -53 -32 -89t-85 -36q-52 0 -92.5 37.5t-40.5 122.5z" />
<glyph unicode="&#x2019;" horiz-adv-x="425" d="M88 1333q0 53 32 89t85 36q52 0 92.5 -37.5t40.5 -122.5t-34 -171t-77.5 -135.5t-74.5 -49.5q-20 0 -34 18t-14 39q0 19 14.5 37t32 33.5t32 52t14.5 88.5v17q-9 -2 -17 -2q-44 1 -68 32t-24 76z" />
<glyph unicode="&#x201a;" horiz-adv-x="425" d="M88 94q0 53 32 89t85 36q52 0 92.5 -37.5t40.5 -122.5t-34 -171t-77.5 -135.5t-74.5 -49.5q-20 0 -34 18t-14 39q0 19 14.5 37t32 33.5t32 52t14.5 88.5v17q-9 -2 -17 -2q-44 1 -68 32t-24 76z" />
<glyph unicode="&#x201c;" horiz-adv-x="768" d="M88 1104q0 85 34 171t77.5 135.5t74.5 49.5q20 0 34 -18t14 -39q0 -19 -14.5 -37t-32 -33.5t-32 -52t-14.5 -88.5v-16q9 2 17 2q44 -1 68 -32.5t24 -76.5q0 -53 -32 -89t-85 -36q-52 0 -92.5 37.5t-40.5 122.5zM430 1104q0 85 34 171t77.5 135.5t74.5 49.5q20 0 34 -18 t14 -39q0 -19 -14.5 -37t-32 -33.5t-32 -52t-14.5 -88.5v-16q9 2 17 2q44 -1 68 -32.5t24 -76.5q0 -53 -32 -89t-85 -36q-52 0 -92.5 37.5t-40.5 122.5z" />
<glyph unicode="&#x201d;" horiz-adv-x="768" d="M88 1333q0 53 32 89t85 36q52 0 92.5 -37.5t40.5 -122.5t-34 -171t-77.5 -135.5t-74.5 -49.5q-20 0 -34 18t-14 39q0 19 14.5 37t32 33.5t32 52t14.5 88.5v17q-9 -2 -17 -2q-44 1 -68 32t-24 76zM430 1333q0 53 32 89t85 36q52 0 92.5 -37.5t40.5 -122.5t-34 -171 t-77.5 -135.5t-74.5 -49.5q-20 0 -34 18t-14 39q0 19 14.5 37t32 33.5t32 52t14.5 88.5v17q-9 -2 -17 -2q-44 1 -68 32t-24 76z" />
<glyph unicode="&#x201e;" horiz-adv-x="768" d="M88 94q0 53 32 89t85 36q52 0 92.5 -37.5t40.5 -122.5t-34 -171t-77.5 -135.5t-74.5 -49.5q-20 0 -34 18t-14 39q0 19 14.5 37t32 33.5t32 52t14.5 88.5v17q-9 -2 -17 -2q-44 1 -68 32t-24 76zM430 94q0 53 32 89t85 36q52 0 92.5 -37.5t40.5 -122.5t-34 -171 t-77.5 -135.5t-74.5 -49.5q-20 0 -34 18t-14 39q0 19 14.5 37t32 33.5t32 52t14.5 88.5v17q-9 -2 -17 -2q-44 1 -68 32t-24 76z" />
<glyph unicode="&#x2020;" horiz-adv-x="980" d="M59 911q0 37 22.5 61.5t70.5 24.5h245v367q0 94 92 94q95 0 95 -90v-371h254q84 0 84 -88q0 -34 -19.5 -60t-64.5 -26h-254v-960q0 -92 -90 -92q-38 0 -67.5 21t-29.5 73v958h-247q-42 0 -66.5 22.5t-24.5 65.5z" />
<glyph unicode="&#x2021;" horiz-adv-x="980" d="M59 352q0 38 22.5 63t70.5 25h245v416h-247q-42 0 -66.5 22.5t-24.5 65.5q0 37 22.5 61.5t70.5 24.5h245v334q0 94 90 94q95 0 95 -90v-338h256q84 0 84 -88q0 -34 -19.5 -60t-64.5 -26h-256v-416h256q41 0 62.5 -23.5t21.5 -66.5q0 -34 -19.5 -60t-64.5 -26h-256v-401 q0 -92 -93 -92q-37 0 -64.5 21t-27.5 73v399h-247q-42 0 -66.5 22.5t-24.5 65.5z" />
<glyph unicode="&#x2022;" horiz-adv-x="681" d="M90 723q0 114 69 182t185 68q113 0 180.5 -67t67.5 -179q0 -114 -69.5 -183t-184.5 -69q-110 0 -179 69t-69 179z" />
<glyph unicode="&#x2026;" horiz-adv-x="2048" d="M231 94q0 51 30 81t81 30q50 0 79.5 -29.5t29.5 -79.5q0 -49 -30.5 -78.5t-80.5 -29.5q-49 0 -79 29.5t-30 76.5zM913 94q0 51 30.5 81t82.5 30q49 0 78 -29.5t29 -79.5t-30 -79t-81 -29q-49 0 -79 29.5t-30 76.5zM1597 94q0 51 30 81t81 30q50 0 79.5 -29.5t29.5 -79.5 q0 -49 -30.5 -78.5t-80.5 -29.5q-49 0 -79 29.5t-30 76.5z" />
<glyph unicode="&#x202f;" horiz-adv-x="374" />
<glyph unicode="&#x2030;" horiz-adv-x="2537" d="M39 969q0 229 91.5 350t275.5 121q50 0 93.5 -11t88.5 -42t77 -80t52 -131.5t20 -190.5q0 -74 -8.5 -137.5t-32 -129t-61.5 -112t-102 -75.5t-148 -29q-94 0 -163 36t-108 101.5t-57 147t-18 182.5zM186 961q0 -46 4 -86.5t17 -89t34 -83t59.5 -58t90.5 -23.5 q39 0 70.5 13.5t52 34.5t35.5 54t22.5 63t12 70t5.5 67.5t1 63.5q0 38 -2 70t-8 73.5t-19.5 73t-34 60t-53.5 44t-76 15.5q-47 0 -83 -16.5t-58.5 -47.5t-37 -65t-21 -79t-9 -79t-2.5 -75zM551 39q0 8 20 63l510 1291q9 23 20.5 32t33.5 9t42.5 -14t20.5 -36q0 -20 -10 -45 l-520 -1314q-14 -37 -52 -37q-24 0 -44.5 13.5t-20.5 37.5zM1014 451q0 229 91.5 350t274.5 121q50 0 93.5 -11t88.5 -42t77 -80t52.5 -131.5t20.5 -190.5q0 -74 -8.5 -137.5t-32 -129t-61.5 -112t-102 -75.5t-148 -29q-94 0 -163 36t-108 101.5t-57 147t-18 182.5z M1161 442q0 -46 4 -86.5t17 -89t34 -83t59.5 -58t90.5 -23.5q46 0 80.5 17t55.5 49t34.5 66t19.5 81t7.5 79t1.5 75q0 38 -2 70t-8 73.5t-19.5 73t-34 60t-53.5 44t-76 15.5q-47 0 -83 -16.5t-58.5 -47.5t-37 -65.5t-21 -79.5t-9 -79t-2.5 -75zM1800 451q0 229 91.5 350 t275.5 121q50 0 93.5 -11t88.5 -42t77 -80t52.5 -131.5t20.5 -190.5q0 -73 -8.5 -137t-32.5 -129.5t-62 -112t-102 -75.5t-148 -29q-94 0 -163 36t-108 101.5t-57 147t-18 182.5zM1948 442q0 -46 3.5 -86.5t16.5 -89t34 -83t59.5 -58t90.5 -23.5q46 0 80.5 17t55.5 49 t34.5 66t19.5 81t7.5 79t1.5 75q0 39 -2 70.5t-8 73.5t-19.5 73t-33.5 59.5t-53 44t-76 15.5q-47 0 -83 -16.5t-58.5 -47.5t-37 -65.5t-21 -79.5t-9 -79t-2.5 -75z" />
<glyph unicode="&#x2039;" horiz-adv-x="512" d="M29 616q0 55 24 74l252 203q19 16 47 16q37 0 61.5 -27t24.5 -65q0 -41 -35 -65l-186 -140l186 -141q35 -28 35 -65t-25 -64t-61 -27q-25 0 -53 21l-246 205q-15 14 -19.5 27t-4.5 48z" />
<glyph unicode="&#x203a;" horiz-adv-x="512" d="M72 410q0 38 32 63l189 141l-187 142q-34 27 -34 67q0 34 24.5 61t61.5 27q28 0 51 -20l248 -205q16 -12 20 -29t4 -47q0 -21 -0.5 -30t-6 -22t-17.5 -21l-252 -203q-23 -19 -49 -19q-35 0 -59.5 29.5t-24.5 65.5z" />
<glyph unicode="&#x2044;" horiz-adv-x="256" d="M-201 37q0 11 17 57l508 1295q19 47 57 47q22 0 42.5 -15t20.5 -37q0 -20 -10 -45l-516 -1310q-16 -43 -55 -43q-23 0 -43.5 13t-20.5 38z" />
<glyph unicode="&#x205f;" horiz-adv-x="468" />
<glyph unicode="&#x20ac;" horiz-adv-x="1331" d="M51 625q0 31 19 45t61 14h92v31q0 55 4 98h-100q-41 0 -58.5 13.5t-17.5 45.5q0 31 18.5 44.5t61.5 13.5h111q41 259 185 398.5t370 139.5q214 0 344 -110q56 -48 92.5 -106t36.5 -101q0 -35 -32.5 -60.5t-76.5 -25.5q-26 0 -40 11.5t-29 45.5q-80 176 -295 176 q-146 0 -235 -90.5t-126 -277.5h522q43 0 61.5 -13.5t18.5 -44.5q0 -32 -17 -45.5t-58 -13.5h-541q-4 -90 -4 -104v-25h522q43 0 61.5 -13.5t18.5 -45.5t-17.5 -46t-58.5 -14h-516q27 -210 120 -316t261 -106q90 0 162 43.5t116 120.5q25 43 40.5 56.5t41.5 13.5 q37 0 65 -25t28 -59q0 -56 -62 -131q-150 -182 -418 -182q-238 0 -380.5 152t-170.5 433h-104q-41 0 -58.5 14t-17.5 46z" />
<glyph unicode="&#x2122;" horiz-adv-x="1421" d="M39 1395q0 51 51 51h426q51 0 51 -51q0 -22 -13.5 -35.5t-35.5 -13.5h-153v-533q0 -28 -16 -43.5t-44 -15.5q-29 0 -45 15.5t-16 43.5v533h-156q-22 0 -35.5 13.5t-13.5 35.5zM629 813v573q0 37 17.5 50.5t64.5 13.5q46 0 64 -11t28 -46l151 -490l148 492 q11 34 27.5 44.5t60.5 10.5q47 0 64.5 -13.5t17.5 -50.5v-573q0 -28 -14.5 -43.5t-40.5 -15.5t-41 15.5t-15 43.5v475l-141 -475q-16 -59 -70 -59q-32 0 -46.5 17.5t-31.5 76.5l-129 436v-471q0 -28 -15.5 -43.5t-41.5 -15.5t-41.5 15.5t-15.5 43.5z" />
<glyph unicode="&#x2202;" horiz-adv-x="1112" d="M86 410q0 209 119 339t311 130q150 0 272 -88v24q0 504 -294 504q-44 0 -92 -13.5t-64 -13.5q-29 0 -48.5 23.5t-19.5 58.5q0 50 62.5 76.5t177.5 26.5q243 0 352 -169t109 -544q0 -387 -112 -587t-359 -200q-185 0 -299.5 120t-114.5 313zM266 410q0 -130 64.5 -206.5 t173.5 -76.5q135 0 201 120t71 369q-120 111 -250 111q-120 0 -190 -85.5t-70 -231.5z" />
<glyph unicode="&#x2206;" horiz-adv-x="1310" d="M43 100q0 23 25 90l454 1164q22 55 54.5 80.5t82.5 25.5q94 0 134 -104l452 -1166q23 -58 23 -90q0 -56 -39 -78t-154 -22h-839q-110 0 -151.5 20t-41.5 80zM266 168h778l-391 1044z" />
<glyph unicode="&#x220f;" horiz-adv-x="1443" d="M139 -176v1499q0 75 21 99t86 24h952q64 0 84.5 -24t20.5 -99v-1503q0 -43 -24.5 -65.5t-68.5 -22.5t-68 22.5t-24 63.5v1458h-792v-1450q0 -43 -24.5 -65.5t-68.5 -22.5t-69 23t-25 63z" />
<glyph unicode="&#x2211;" horiz-adv-x="1214" d="M53 -150q0 32 7.5 50.5t37.5 56.5l533 659l-533 621q-26 31 -35.5 53t-9.5 53q0 49 23 76t63 27h961q34 0 55 -24t21 -62q0 -84 -80 -84h-807l489 -553q34 -37 45 -56.5t11 -43.5q0 -40 -52 -103l-508 -600h828q34 0 55 -24t21 -62q0 -84 -82 -84h-957q-86 0 -86 100z " />
<glyph unicode="&#x221a;" horiz-adv-x="1484" d="M139 268q0 46 54 68l139 63q42 19 63 19q26 0 45.5 -19.5t38.5 -64.5l213 -488l432 1547q19 65 82 65q43 0 72 -20.5t29 -51.5q0 -11 -7 -32l-485 -1641q-30 -104 -121 -104q-80 0 -108 61l-254 553l-82 -37q-20 -10 -35 -10q-31 0 -53.5 27.5t-22.5 64.5z" />
<glyph unicode="&#x221e;" horiz-adv-x="1482" d="M63 606q0 166 95 278.5t235 112.5q100 0 182.5 -56t172.5 -198q99 140 176 197t176 57q138 0 228.5 -106.5t90.5 -269.5q0 -167 -96.5 -280.5t-239.5 -113.5q-103 0 -177 53t-175 197q-109 -148 -183 -198t-169 -50q-138 0 -227 106.5t-89 270.5zM221 614 q0 -98 47 -162.5t119 -64.5q58 0 111 45t147 176q-72 121 -133.5 175.5t-124.5 54.5q-72 0 -119 -63t-47 -161zM838 614q74 -121 133 -175t127 -54q72 0 119 62t47 159q0 99 -46.5 164.5t-115.5 65.5q-58 0 -119 -51.5t-145 -170.5z" />
<glyph unicode="&#x222b;" horiz-adv-x="690" d="M45 -279q0 35 18 57.5t46 22.5q7 0 26.5 -5t36.5 -5q84 0 84 121v1305q0 53 11 96.5t36 82t73 60t116 21.5q76 0 116.5 -21t40.5 -59q0 -37 -17.5 -59.5t-45.5 -22.5q-9 0 -30.5 5t-35.5 5q-22 0 -37.5 -5t-25 -18t-15.5 -25.5t-8.5 -36.5t-3 -42t-0.5 -51v-1249 q0 -123 -58 -190.5t-175 -67.5q-152 0 -152 81z" />
<glyph unicode="&#x2248;" horiz-adv-x="1482" d="M150 375q0 21 24 51q78 90 146 130t155 40q55 0 107 -16.5t166 -67.5l92 -41q73 -32 103 -41.5t61 -9.5q39 0 82.5 18t74.5 49l31 31q29 29 57 29q32 0 59 -26t27 -56q0 -22 -24 -53q-68 -81 -151 -124.5t-165 -43.5q-98 0 -245 75l-72 37q-121 62 -213 62 q-48 0 -78.5 -14.5t-69.5 -57.5q-50 -55 -81 -55q-30 0 -58 26.5t-28 57.5zM150 791q0 23 24 53q75 88 144 129t157 41q54 0 107 -16.5t166 -67.5l92 -41q72 -32 103 -41.5t61 -9.5q87 0 157 67l31 29q36 31 57 31q30 0 58 -26t28 -56q0 -23 -24 -54q-69 -81 -151.5 -125.5 t-164.5 -44.5q-49 0 -102.5 17.5t-142.5 60.5l-72 35q-134 64 -213 64q-45 0 -77.5 -15t-70.5 -57q-50 -55 -81 -55q-30 0 -58 26t-28 56z" />
<glyph unicode="&#x2260;" horiz-adv-x="1482" d="M186 412q0 84 82 84h340l105 217h-449q-34 0 -55 22.5t-21 59.5q0 84 82 84h527l139 280q15 29 29 41t34 12q34 0 56 -18.5t22 -46.5q0 -19 -12 -43l-113 -225h267q34 0 54.5 -22.5t20.5 -59.5q0 -84 -82 -84h-342l-106 -217h455q34 0 54.5 -23.5t20.5 -60.5 q0 -40 -21 -62t-61 -22h-528l-147 -303q-25 -54 -66 -54q-34 0 -56 19t-22 47q0 14 13 43l120 248h-264q-34 0 -55 23.5t-21 60.5z" />
<glyph unicode="&#x2264;" horiz-adv-x="1482" d="M221 786q0 68 66 99l837 391q12 6 29 6q32 0 55 -27t23 -65q0 -28 -12 -43.5t-45 -30.5l-717 -323l721 -324q31 -14 43 -28.5t12 -39.5q0 -43 -23 -72.5t-57 -29.5q-15 0 -43 12l-825 381q-64 30 -64 94zM223 82q0 40 21 62t59 22h852q34 0 55 -23.5t21 -60.5 q0 -84 -82 -84h-850q-34 0 -55 23.5t-21 60.5z" />
<glyph unicode="&#x2265;" horiz-adv-x="1482" d="M250 1176q0 42 23.5 72t56.5 30q15 0 43 -12l827 -379q28 -12 45 -37.5t17 -56.5q0 -68 -66 -99l-836 -391q-15 -6 -30 -6q-32 0 -55 27t-23 65q0 28 12.5 44.5t44.5 29.5l717 323l-721 320q-30 13 -42.5 29t-12.5 41zM252 80q0 84 82 84h852q34 0 55 -23.5t21 -60.5 q0 -40 -21 -62t-61 -22h-852q-34 0 -55 23.5t-21 60.5z" />
<glyph unicode="&#x25ca;" horiz-adv-x="1482" d="M301 723q0 22 5 36t28 58l278 537q34 63 59.5 81.5t78.5 18.5q50 0 77.5 -21t57.5 -83l270 -541q29 -57 29 -86q0 -21 -5.5 -36.5t-27.5 -57.5l-279 -539q-31 -60 -59.5 -80t-77.5 -20q-46 0 -75 21.5t-60 84.5l-272 541q-27 59 -27 86zM471 725l266 -563l277 565 l-266 559z" />
<glyph unicode="&#xe000;" horiz-adv-x="1075" d="M0 0v1075h1075v-1075h-1075z" />
</font>
</defs>
</svg>
